{
copyright = "Copyright 2018 The Committed Adultery Project Authors (https://github.com/vladimirnikolic1/CommittedAdultery/) ";
designer = "Vladimir Nikolic";
designerURL = "https://www.coroflot.com/vladimirnikolic";
familyName = "Committed Adultery";
customParameters = (
{
name = glyphOrder;
value = (
.notdef,
exclam,
quotedbl,
numbersign,
dollar,
percent,
ampersand,
quotesingle,
parenleft,
parenright,
asterisk,
plus,
comma,
hyphen,
period,
slash,
zero,
one,
two,
three,
four,
five,
six,
seven,
eight,
nine,
colon,
semicolon,
less,
equal,
greater,
question,
at,
A,
B,
C,
D,
E,
F,
G,
H,
I,
J,
K,
L,
M,
N,
O,
P,
Q,
R,
S,
T,
U,
V,
W,
X,
Y,
Z,
bracketleft,
backslash,
bracketright,
asciicircum,
underscore,
grave,
a,
b,
c,
d,
e,
f,
g,
h,
i,
j,
k,
l,
m,
n,
o,
p,
q,
r,
s,
t,
u,
v,
w,
x,
y,
z,
braceleft,
bar,
braceright,
asciitilde,
Lslash,
lslash,
Zcaron,
zcaron,
hungarumlaut,
ogonek,
caron,
dotlessi,
ring,
breve,
dotaccent,
quotesinglbase,
quotedblbase,
ellipsis,
circumflex,
Scaron,
OE,
guilsinglleft,
quoteleft,
quoteright,
quotedblleft,
quotedblright,
bullet,
endash,
emdash,
tilde,
trademark,
scaron,
guilsinglright,
oe,
Ydieresis,
questiondown,
ordmasculine,
paragraph,
cedilla,
periodcentered,
acute,
registered,
macron,
degree,
minus,
section,
dieresis,
ordfeminine,
copyright,
exclamdown,
cent,
sterling,
yen,
Agrave,
Aacute,
Acircumflex,
Atilde,
Adieresis,
Aring,
AE,
Ccedilla,
Egrave,
Eacute,
Ecircumflex,
Edieresis,
Igrave,
Iacute,
Icircumflex,
Idieresis,
Eth,
Ntilde,
Ograve,
Oacute,
Ocircumflex,
Otilde,
Odieresis,
multiply,
Oslash,
Ugrave,
Uacute,
Ucircumflex,
Udieresis,
Yacute,
Thorn,
germandbls,
agrave,
aacute,
acircumflex,
atilde,
adieresis,
aring,
ae,
ccedilla,
egrave,
eacute,
ecircumflex,
edieresis,
igrave,
iacute,
icircumflex,
idieresis,
eth,
ntilde,
ograve,
oacute,
ocircumflex,
otilde,
odieresis,
divide,
oslash,
ugrave,
uacute,
ucircumflex,
udieresis,
yacute,
thorn,
ydieresis,
euro,
space,
gravecomb,
acutecomb,
circumflexcomb,
tildecomb,
macroncomb,
brevecomb,

glyphs = (
{
glyphname = .notdef;
layers = (
{
layerId = "F2D4BABB-D5EC-4775-ADE2-E484DFADF6C4";
paths = (
{
nodes = (
"112 738 LINE",
"644 738 LINE",
"644 -23 LINE",
"112 -23 LINE"
);
},
{
nodes = (
"178 43 LINE",
"578 43 LINE",
"578 672 LINE",
"178 672 LINE"
);
}
);
width = 658;
}
);
},
{
glyphname = exclam;
layers = (
{
layerId = "F2D4BABB-D5EC-4775-ADE2-E484DFADF6C4";
paths = (
{
nodes = (
"120 686 LINE",
"233 686 LINE",
"150 164 LINE",
"37 164 LINE"
);
},
{
nodes = (
"13 10 LINE",
"30 121 LINE",
"143 121 LINE",
"126 10 LINE"
);
}
);
width = 137;
}
);
unicode = 0021;
},
{
glyphname = quotedbl;
layers = (
{
layerId = "F2D4BABB-D5EC-4775-ADE2-E484DFADF6C4";
paths = (
{
nodes = (
"128 686 LINE",
"241 686 LINE",
"203 451 LINE",
"90 451 LINE"
);
},
{
nodes = (
"269 686 LINE",
"382 686 LINE",
"344 451 LINE",
"231 451 LINE"
);
}
);
width = 294;
}
);
unicode = 0022;
},
{
glyphname = numbersign;
layers = (
{
layerId = "F2D4BABB-D5EC-4775-ADE2-E484DFADF6C4";
paths = (
{
nodes = (
"278 686 LINE",
"391 686 LINE",
"284 10 LINE",
"171 10 LINE"
);
},
{
nodes = (
"522 686 LINE",
"635 686 LINE",
"528 10 LINE",
"415 10 LINE"
);
},
{
nodes = (
"733 413 LINE",
"102 413 LINE",
"120 527 LINE",
"751 527 LINE"
);
},
{
nodes = (
"694 163 LINE",
"63 163 LINE",
"81 277 LINE",
"712 277 LINE"
);
}
);
width = 716;
}
);
unicode = 0023;
},
{
glyphname = dollar;
layers = (
{
layerId = "F2D4BABB-D5EC-4775-ADE2-E484DFADF6C4";
paths = (
{
nodes = (
"462 323 LINE",
"412 10 LINE",
"13 10 LINE",
"49 239 LINE",
"161 239 LINE",
"145 133 LINE",
"318 133 LINE",
"337 253 LINE",
"76 405 LINE",
"120 686 LINE",
"519 686 LINE",
"492 516 LINE",
"370 467 LINE",
"387 569 LINE",
"215 569 LINE",
"199 472 LINE"
);
},
{
nodes = (
"306 793 LINE",
"386 793 LINE",
"246 -79 LINE",
"166 -79 LINE"
);
}
);
width = 423;
}
);
unicode = 0024;
},
{
glyphname = percent;
layers = (
{
layerId = "F2D4BABB-D5EC-4775-ADE2-E484DFADF6C4";
paths = (
{
nodes = (
"587 686 LINE",
"740 686 LINE",
"188 10 LINE",
"35 10 LINE"
);
},
{
nodes = (
"677 354 LINE",
"622 10 LINE",
"304 10 LINE",
"359 354 LINE"
);
},
{
nodes = (
"546 237 LINE",
"453 237 LINE",
"436 133 LINE",
"529 133 LINE"
);
},
{
nodes = (
"465 686 LINE",
"410 342 LINE",
"92 342 LINE",
"147 686 LINE"
);
},
{
nodes = (
"334 569 LINE",
"241 569 LINE",
"224 465 LINE",
"317 465 LINE"
);
}
);
width = 647;
}
);
unicode = 0025;
},
{
glyphname = ampersand;
layers = (
{
layerId = "F2D4BABB-D5EC-4775-ADE2-E484DFADF6C4";
paths = (
{
nodes = (
"385 495 LINE",
"500 495 LINE",
"492 443 LINE",
"563 461 LINE",
"543 345 LINE",
"473 325 LINE",
"424 10 LINE",
"25 10 LINE",
"132 686 LINE",
"531 686 LINE",
"512 569 LINE",
"227 569 LINE",
"197 369 LINE",
"372 413 LINE"
);
},
{
nodes = (
"330 133 LINE",
"354 292 LINE",
"176 242 LINE",
"157 133 LINE"
);
}
);
width = 522;
}
);
unicode = 0026;
},
{
glyphname = quotesingle;
layers = (
{
layerId = "F2D4BABB-D5EC-4775-ADE2-E484DFADF6C4";
paths = (
{
nodes = (
"167 686 LINE",
"280 686 LINE",
"242 451 LINE",
"129 451 LINE"
);
}
);
width = 224;
}
);
unicode = 0027;
},
{
glyphname = parenleft;
layers = (
{
layerId = "F2D4BABB-D5EC-4775-ADE2-E484DFADF6C4";
paths = (
{
nodes = (
"229 -183 LINE",
"51 -60 LINE",
"177 729 LINE",
"393 851 LINE",
"497 851 LINE",
"479 735 LINE",
"403 735 LINE",
"278 661 LINE",
"174 8 LINE",
"275 -66 LINE",
"352 -66 LINE",
"333 -183 LINE"
);
}
);
width = 242;
}
);
unicode = 0028;
},
{
glyphname = parenright;
layers = (
{
layerId = "F2D4BABB-D5EC-4775-ADE2-E484DFADF6C4";
paths = (
{
nodes = (
"177 851 LINE",
"355 728 LINE",
"229 -61 LINE",
"13 -183 LINE",
"-91 -183 LINE",
"-73 -67 LINE",
"3 -67 LINE",
"128 7 LINE",
"232 660 LINE",
"131 734 LINE",
"54 734 LINE",
"73 851 LINE"
);
}
);
width = 318;
}
);
unicode = 0029;
},
{
glyphname = asterisk;
layers = (
{
layerId = "F2D4BABB-D5EC-4775-ADE2-E484DFADF6C4";
paths = (
{
nodes = (
"291 700 LINE",
"392 700 LINE",
"323 295 LINE",
"222 295 LINE"
);
},
{
nodes = (
"467 658 LINE",
"531 572 LINE",
"184 347 LINE",
"108 430 LINE"
);
},
{
nodes = (
"495 397 LINE",
"417 333 LINE",
"145 602 LINE",
"224 664 LINE"
);
}
);
width = 474;
}
);
unicode = 002A;
},
{
glyphname = plus;
layers = (
{
layerId = "F2D4BABB-D5EC-4775-ADE2-E484DFADF6C4";
paths = (
{
nodes = (
"178 510 LINE",
"291 510 LINE",
"280 444 LINE",
"363 444 LINE",
"345 330 LINE",
"262 330 LINE",
"252 264 LINE",
"139 264 LINE",
"149 330 LINE",
"78 330 LINE",
"96 444 LINE",
"167 444 LINE"
);
}
);
width = 310;
}
);
unicode = 002B;
},
{
glyphname = comma;
layers = (
{
layerId = "F2D4BABB-D5EC-4775-ADE2-E484DFADF6C4";
paths = (
{
nodes = (
"13 10 LINE",
"39 177 LINE",
"152 177 LINE",
"126 10 LINE"
);
}
);
width = 181;
}
);
unicode = 002C;
},
{
glyphname = hyphen;
layers = (
{
layerId = "F2D4BABB-D5EC-4775-ADE2-E484DFADF6C4";
paths = (
{
nodes = (
"362 318 LINE",
"82 318 LINE",
"100 432 LINE",
"380 432 LINE"
);
}
);
width = 337;
}
);
unicode = 002D;
},
{
glyphname = period;
layers = (
{
layerId = "F2D4BABB-D5EC-4775-ADE2-E484DFADF6C4";
paths = (
{
nodes = (
"53 177 LINE",
"166 177 LINE",
"149 69 LINE",
"36 69 LINE"
);
}
);
width = 168;
}
);
unicode = 002E;
},
{
glyphname = slash;
layers = (
{
layerId = "F2D4BABB-D5EC-4775-ADE2-E484DFADF6C4";
paths = (
{
nodes = (
"394 686 LINE",
"523 686 LINE",
"164 10 LINE",
"35 10 LINE"
);
}
);
width = 432;
}
);
unicode = 002F;
},
{
glyphname = zero;
layers = (
{
layerId = "F2D4BABB-D5EC-4775-ADE2-E484DFADF6C4";
paths = (
{
nodes = (
"519 686 LINE",
"412 10 LINE",
"13 10 LINE",
"120 686 LINE"
);
},
{
nodes = (
"388 569 LINE",
"214 569 LINE",
"145 133 LINE",
"319 133 LINE"
);
}
);
width = 423;
}
);
unicode = 0030;
},
{
glyphname = one;
layers = (
{
layerId = "F2D4BABB-D5EC-4775-ADE2-E484DFADF6C4";
paths = (
{
nodes = (
"272 569 LINE",
"155 569 LINE",
"174 686 LINE",
"402 686 LINE",
"295 10 LINE",
"183 10 LINE"
);
}
);
width = 407;
}
);
unicode = 0031;
},
{
glyphname = two;
layers = (
{
layerId = "F2D4BABB-D5EC-4775-ADE2-E484DFADF6C4";
paths = (
{
nodes = (
"13 10 LINE",
"51 273 LINE",
"381 523 LINE",
"389 569 LINE",
"215 569 LINE",
"208 527 LINE",
"95 527 LINE",
"120 686 LINE",
"519 686 LINE",
"487 481 LINE",
"159 223 LINE",
"145 133 LINE",
"319 133 LINE",
"327 189 LINE",
"440 189 LINE",
"412 10 LINE"
);
}
);
width = 423;
}
);
unicode = 0032;
},
{
glyphname = three;
layers = (
{
layerId = "F2D4BABB-D5EC-4775-ADE2-E484DFADF6C4";
paths = (
{
nodes = (
"350 328 LINE",
"271 328 LINE",
"203 279 LINE",
"203 398 LINE",
"381 523 LINE",
"389 569 LINE",
"215 569 LINE",
"208 527 LINE",
"95 527 LINE",
"120 686 LINE",
"519 686 LINE",
"487 481 LINE",
"408 425 LINE",
"478 425 LINE",
"428 113 LINE",
"257 10 LINE",
"13 10 LINE",
"42 192 LINE",
"155 192 LINE",
"146 133 LINE",
"233 133 LINE",
"329 192 LINE"
);
}
);
width = 423;
}
);
unicode = 0033;
},
{
glyphname = four;
layers = (
{
layerId = "F2D4BABB-D5EC-4775-ADE2-E484DFADF6C4";
paths = (
{
nodes = (
"415 10 LINE",
"301 10 LINE",
"352 330 LINE",
"63 330 LINE",
"120 686 LINE",
"233 686 LINE",
"195 444 LINE",
"370 444 LINE",
"408 686 LINE",
"522 686 LINE"
);
}
);
width = 426;
}
);
unicode = 0034;
},
{
glyphname = five;
layers = (
{
layerId = "F2D4BABB-D5EC-4775-ADE2-E484DFADF6C4";
paths = (
{
nodes = (
"462 323 LINE",
"412 10 LINE",
"13 10 LINE",
"49 239 LINE",
"161 239 LINE",
"145 133 LINE",
"318 133 LINE",
"337 253 LINE",
"76 405 LINE",
"120 686 LINE",
"519 686 LINE",
"500 569 LINE",
"215 569 LINE",
"199 472 LINE"
);
}
);
width = 423;
}
);
unicode = 0035;
},
{
glyphname = six;
layers = (
{
layerId = "F2D4BABB-D5EC-4775-ADE2-E484DFADF6C4";
paths = (
{
nodes = (
"462 323 LINE",
"412 10 LINE",
"13 10 LINE",
"120 686 LINE",
"519 686 LINE",
"492 516 LINE",
"370 467 LINE",
"387 569 LINE",
"215 569 LINE",
"199 472 LINE"
);
},
{
nodes = (
"318 133 LINE",
"337 253 LINE",
"178 345 LINE",
"145 133 LINE"
);
}
);
width = 423;
}
);
unicode = 0036;
},
{
glyphname = seven;
layers = (
{
layerId = "F2D4BABB-D5EC-4775-ADE2-E484DFADF6C4";
paths = (
{
nodes = (
"389 569 LINE",
"101 569 LINE",
"120 686 LINE",
"519 686 LINE",
"412 10 LINE",
"300 10 LINE"
);
}
);
width = 423;
}
);
unicode = 0037;
},
{
glyphname = eight;
layers = (
{
layerId = "F2D4BABB-D5EC-4775-ADE2-E484DFADF6C4";
paths = (
{
nodes = (
"412 10 LINE",
"13 10 LINE",
"120 686 LINE",
"519 686 LINE"
);
},
{
nodes = (
"318 133 LINE",
"337 253 LINE",
"178 345 LINE",
"145 133 LINE"
);
},
{
nodes = (
"387 569 LINE",
"215 569 LINE",
"199 472 LINE",
"357 382 LINE"
);
}
);
width = 423;
}
);
unicode = 0038;
},
{
glyphname = nine;
layers = (
{
layerId = "F2D4BABB-D5EC-4775-ADE2-E484DFADF6C4";
paths = (
{
nodes = (
"412 10 LINE",
"13 10 LINE",
"49 239 LINE",
"161 239 LINE",
"145 133 LINE",
"318 133 LINE",
"337 253 LINE",
"76 405 LINE",
"120 686 LINE",
"519 686 LINE"
);
},
{
nodes = (
"385 569 LINE",
"215 569 LINE",
"199 472 LINE",
"356 383 LINE"
);
}
);
width = 423;
}
);
unicode = 0039;
},
{
glyphname = colon;
layers = (
{
layerId = "F2D4BABB-D5EC-4775-ADE2-E484DFADF6C4";
paths = (
{
nodes = (
"155 652 LINE",
"268 652 LINE",
"250 538 LINE",
"137 538 LINE"
);
},
{
nodes = (
"80 177 LINE",
"193 177 LINE",
"176 69 LINE",
"63 69 LINE"
);
}
);
width = 213;
}
);
unicode = 003A;
},
{
glyphname = semicolon;
layers = (
{
layerId = "F2D4BABB-D5EC-4775-ADE2-E484DFADF6C4";
paths = (
{
nodes = (
"160 652 LINE",
"273 652 LINE",
"255 538 LINE",
"142 538 LINE"
);
},
{
nodes = (
"59 10 LINE",
"85 177 LINE",
"198 177 LINE",
"172 10 LINE"
);
}
);
width = 228;
}
);
unicode = 003B;
},
{
glyphname = less;
layers = (
{
layerId = "F2D4BABB-D5EC-4775-ADE2-E484DFADF6C4";
paths = (
{
nodes = (
"23 343 LINE",
"331 653 LINE",
"303 474 LINE",
"161 331 LINE",
"263 194 LINE",
"238 41 LINE"
);
}
);
width = 281;
}
);
unicode = 003C;
},
{
glyphname = equal;
layers = (
{
layerId = "F2D4BABB-D5EC-4775-ADE2-E484DFADF6C4";
paths = (
{
nodes = (
"350 330 LINE",
"83 330 LINE",
"101 444 LINE",
"368 444 LINE"
);
},
{
nodes = (
"323 156 LINE",
"56 156 LINE",
"74 270 LINE",
"341 270 LINE"
);
}
);
width = 328;
}
);
unicode = 003D;
},
{
glyphname = greater;
layers = (
{
layerId = "F2D4BABB-D5EC-4775-ADE2-E484DFADF6C4";
paths = (
{
nodes = (
"331 351 LINE",
"23 41 LINE",
"51 220 LINE",
"193 363 LINE",
"91 500 LINE",
"116 653 LINE"
);
}
);
width = 281;
}
);
unicode = 003E;
},
{
glyphname = question;
layers = (
{
layerId = "F2D4BABB-D5EC-4775-ADE2-E484DFADF6C4";
paths = (
{
nodes = (
"95 269 LINE",
"425 523 LINE",
"433 569 LINE",
"259 569 LINE",
"252 527 LINE",
"139 527 LINE",
"164 686 LINE",
"563 686 LINE",
"531 481 LINE",
"203 223 LINE",
"195 171 LINE",
"82 171 LINE"
);
},
{
nodes = (
"57 10 LINE",
"76 132 LINE",
"191 132 LINE",
"172 10 LINE"
);
}
);
width = 500;
}
);
unicode = 003F;
},
{
glyphname = at;
layers = (
{
layerId = "F2D4BABB-D5EC-4775-ADE2-E484DFADF6C4";
paths = (
{
nodes = (
"734 557 LINE",
"674 189 LINE",
"780 189 LINE",
"857 682 LINE",
"258 682 LINE",
"147 -27 LINE",
"858 -27 LINE",
"839 -150 LINE",
"15 -150 LINE",
"164 799 LINE",
"988 799 LINE",
"878 103 LINE",
"261 103 LINE",
"335 557 LINE"
);
},
{
nodes = (
"603 440 LINE",
"429 440 LINE",
"393 226 LINE",
"567 226 LINE"
);
}
);
width = 928;
}
);
unicode = 0040;
},
{
glyphname = A;
layers = (
{
layerId = "F2D4BABB-D5EC-4775-ADE2-E484DFADF6C4";
paths = (
{
nodes = (
"334 232 LINE",
"161 232 LINE",
"126 10 LINE",
"13 10 LINE",
"120 686 LINE",
"321 686 LINE",
"499 564 LINE",
"411 10 LINE",
"299 10 LINE"
);
},
{
nodes = (
"352 345 LINE",
"376 496 LINE",
"275 569 LINE",
"215 569 LINE",
"179 345 LINE"
);
}
);
width = 422;
}
);
unicode = 0041;
},
{
glyphname = B;
layers = (
{
layerId = "F2D4BABB-D5EC-4775-ADE2-E484DFADF6C4";
paths = (
{
nodes = (
"519 686 LINE",
"487 481 LINE",
"408 425 LINE",
"478 425 LINE",
"428 113 LINE",
"257 10 LINE",
"13 10 LINE",
"120 686 LINE"
);
},
{
nodes = (
"350 328 LINE",
"271 328 LINE",
"164 252 LINE",
"146 133 LINE",
"233 133 LINE",
"329 192 LINE"
);
},
{
nodes = (
"381 523 LINE",
"389 569 LINE",
"215 569 LINE",
"186 386 LINE"
);
}
);
width = 423;
}
);
unicode = 0042;
},
{
glyphname = C;
layers = (
{
layerId = "F2D4BABB-D5EC-4775-ADE2-E484DFADF6C4";
paths = (
{
nodes = (
"519 686 LINE",
"501 569 LINE",
"215 569 LINE",
"146 133 LINE",
"432 133 LINE",
"412 10 LINE",
"13 10 LINE",
"120 686 LINE"
);
}
);
width = 423;
}
);
unicode = 0043;
},
{
glyphname = D;
layers = (
{
layerId = "F2D4BABB-D5EC-4775-ADE2-E484DFADF6C4";
paths = (
{
nodes = (
"321 686 LINE",
"499 563 LINE",
"411 10 LINE",
"13 10 LINE",
"120 686 LINE"
);
},
{
nodes = (
"215 569 LINE",
"146 133 LINE",
"319 133 LINE",
"376 495 LINE",
"275 569 LINE"
);
}
);
width = 422;
}
);
unicode = 0044;
},
{
glyphname = E;
layers = (
{
layerId = "F2D4BABB-D5EC-4775-ADE2-E484DFADF6C4";
paths = (
{
nodes = (
"189 406 LINE",
"374 484 LINE",
"354 358 LINE",
"169 280 LINE",
"146 133 LINE",
"420 133 LINE",
"400 10 LINE",
"13 10 LINE",
"120 686 LINE",
"507 686 LINE",
"489 569 LINE",
"215 569 LINE"
);
}
);
width = 411;
}
);
unicode = 0045;
},
{
glyphname = F;
layers = (
{
layerId = "F2D4BABB-D5EC-4775-ADE2-E484DFADF6C4";
paths = (
{
nodes = (
"480 686 LINE",
"462 569 LINE",
"215 569 LINE",
"189 410 LINE",
"366 491 LINE",
"346 365 LINE",
"169 284 LINE",
"126 10 LINE",
"13 10 LINE",
"120 686 LINE"
);
}
);
width = 384;
}
);
unicode = 0046;
},
{
glyphname = G;
layers = (
{
layerId = "F2D4BABB-D5EC-4775-ADE2-E484DFADF6C4";
paths = (
{
nodes = (
"519 686 LINE",
"501 569 LINE",
"215 569 LINE",
"146 133 LINE",
"320 133 LINE",
"344 288 LINE",
"229 227 LINE",
"249 359 LINE",
"485 472 LINE",
"412 10 LINE",
"13 10 LINE",
"120 686 LINE"
);
}
);
width = 423;
}
);
unicode = 0047;
},
{
glyphname = H;
layers = (
{
layerId = "F2D4BABB-D5EC-4775-ADE2-E484DFADF6C4";
paths = (
{
nodes = (
"415 10 LINE",
"301 10 LINE",
"352 330 LINE",
"177 330 LINE",
"126 10 LINE",
"13 10 LINE",
"120 686 LINE",
"233 686 LINE",
"195 444 LINE",
"370 444 LINE",
"408 686 LINE",
"522 686 LINE"
);
}
);
width = 426;
}
);
unicode = 0048;
},
{
glyphname = I;
layers = (
{
layerId = "F2D4BABB-D5EC-4775-ADE2-E484DFADF6C4";
paths = (
{
nodes = (
"120 686 LINE",
"233 686 LINE",
"126 10 LINE",
"13 10 LINE"
);
}
);
width = 137;
}
);
unicode = 0049;
},
{
glyphname = J;
layers = (
{
layerId = "F2D4BABB-D5EC-4775-ADE2-E484DFADF6C4";
paths = (
{
nodes = (
"102 569 LINE",
"120 686 LINE",
"514 686 LINE",
"421 95 LINE",
"208 10 LINE",
"27 95 LINE",
"57 287 LINE",
"169 287 LINE",
"150 170 LINE",
"228 133 LINE",
"319 170 LINE",
"383 569 LINE"
);
}
);
width = 418;
}
);
unicode = 004A;
},
{
glyphname = K;
layers = (
{
layerId = "F2D4BABB-D5EC-4775-ADE2-E484DFADF6C4";
paths = (
{
nodes = (
"370 514 LINE",
"397 686 LINE",
"519 686 LINE",
"486 477 LINE",
"407 421 LINE",
"477 421 LINE",
"412 10 LINE",
"300 10 LINE",
"350 324 LINE",
"271 324 LINE",
"164 248 LINE",
"126 10 LINE",
"13 10 LINE",
"120 686 LINE",
"233 686 LINE",
"186 390 LINE"
);
}
);
width = 423;
}
);
unicode = 004B;
},
{
glyphname = L;
layers = (
{
layerId = "F2D4BABB-D5EC-4775-ADE2-E484DFADF6C4";
paths = (
{
nodes = (
"146 133 LINE",
"403 133 LINE",
"383 10 LINE",
"13 10 LINE",
"120 686 LINE",
"233 686 LINE"
);
}
);
width = 394;
}
);
unicode = 004C;
},
{
glyphname = M;
layers = (
{
layerId = "F2D4BABB-D5EC-4775-ADE2-E484DFADF6C4";
paths = (
{
nodes = (
"337 569 LINE",
"215 569 LINE",
"126 10 LINE",
"13 10 LINE",
"120 686 LINE",
"510 686 LINE",
"688 564 LINE",
"600 10 LINE",
"488 10 LINE",
"565 496 LINE",
"464 569 LINE",
"450 569 LINE",
"361 10 LINE",
"248 10 LINE"
);
}
);
width = 611;
}
);
unicode = 004D;
},
{
glyphname = N;
layers = (
{
layerId = "F2D4BABB-D5EC-4775-ADE2-E484DFADF6C4";
paths = (
{
nodes = (
"215 569 LINE",
"126 10 LINE",
"13 10 LINE",
"120 686 LINE",
"321 686 LINE",
"499 563 LINE",
"411 10 LINE",
"299 10 LINE",
"376 495 LINE",
"275 569 LINE"
);
}
);
width = 422;
}
);
unicode = 004E;
},
{
glyphname = O;
layers = (
{
layerId = "F2D4BABB-D5EC-4775-ADE2-E484DFADF6C4";
paths = (
{
nodes = (
"519 686 LINE",
"412 10 LINE",
"13 10 LINE",
"120 686 LINE"
);
},
{
nodes = (
"388 569 LINE",
"214 569 LINE",
"145 133 LINE",
"319 133 LINE"
);
}
);
width = 423;
}
);
unicode = 004F;
},
{
glyphname = P;
layers = (
{
layerId = "F2D4BABB-D5EC-4775-ADE2-E484DFADF6C4";
paths = (
{
nodes = (
"126 10 LINE",
"13 10 LINE",
"120 686 LINE",
"506 686 LINE",
"464 419 LINE",
"155 190 LINE"
);
},
{
nodes = (
"356 469 LINE",
"372 569 LINE",
"215 569 LINE",
"177 332 LINE"
);
}
);
width = 410;
}
);
unicode = 0050;
},
{
glyphname = Q;
layers = (
{
layerId = "F2D4BABB-D5EC-4775-ADE2-E484DFADF6C4";
paths = (
{
nodes = (
"547 686 LINE",
"440 10 LINE",
"303 10 LINE",
"323 133 LINE",
"347 133 LINE",
"416 569 LINE",
"214 569 LINE",
"145 133 LINE",
"166 133 LINE",
"146 10 LINE",
"13 10 LINE",
"120 686 LINE"
);
},
{
nodes = (
"276 -28 LINE",
"151 -106 LINE",
"210 267 LINE",
"334 335 LINE"
);
}
);
width = 451;
}
);
unicode = 0051;
},
{
glyphname = R;
layers = (
{
layerId = "F2D4BABB-D5EC-4775-ADE2-E484DFADF6C4";
paths = (
{
nodes = (
"126 10 LINE",
"13 10 LINE",
"120 686 LINE",
"519 686 LINE",
"479 434 LINE",
"400 378 LINE",
"470 378 LINE",
"412 10 LINE",
"300 10 LINE",
"343 281 LINE",
"264 281 LINE",
"157 205 LINE"
);
},
{
nodes = (
"375 482 LINE",
"389 569 LINE",
"215 569 LINE",
"179 347 LINE"
);
}
);
width = 423;
}
);
unicode = 0052;
},
{
glyphname = S;
layers = (
{
layerId = "F2D4BABB-D5EC-4775-ADE2-E484DFADF6C4";
paths = (
{
nodes = (
"462 323 LINE",
"412 10 LINE",
"13 10 LINE",
"49 239 LINE",
"161 239 LINE",
"145 133 LINE",
"318 133 LINE",
"337 253 LINE",
"76 405 LINE",
"120 686 LINE",
"519 686 LINE",
"492 516 LINE",
"370 467 LINE",
"387 569 LINE",
"215 569 LINE",
"199 472 LINE"
);
}
);
width = 423;
}
);
unicode = 0053;
},
{
glyphname = T;
layers = (
{
layerId = "F2D4BABB-D5EC-4775-ADE2-E484DFADF6C4";
paths = (
{
nodes = (
"120 686 LINE",
"473 686 LINE",
"455 569 LINE",
"337 569 LINE",
"248 10 LINE",
"135 10 LINE",
"224 569 LINE",
"102 569 LINE"
);
}
);
width = 377;
}
);
unicode = 0054;
},
{
glyphname = U;
layers = (
{
layerId = "F2D4BABB-D5EC-4775-ADE2-E484DFADF6C4";
paths = (
{
nodes = (
"406 686 LINE",
"519 686 LINE",
"412 10 LINE",
"13 10 LINE",
"120 686 LINE",
"232 686 LINE",
"145 133 LINE",
"319 133 LINE"
);
}
);
width = 423;
}
);
unicode = 0055;
},
{
glyphname = V;
layers = (
{
layerId = "F2D4BABB-D5EC-4775-ADE2-E484DFADF6C4";
paths = (
{
nodes = (
"204 126 LINE",
"329 200 LINE",
"406 686 LINE",
"518 686 LINE",
"430 132 LINE",
"214 10 LINE",
"13 10 LINE",
"120 686 LINE",
"233 686 LINE",
"144 126 LINE"
);
}
);
width = 422;
}
);
unicode = 0056;
},
{
glyphname = W;
layers = (
{
layerId = "F2D4BABB-D5EC-4775-ADE2-E484DFADF6C4";
paths = (
{
nodes = (
"355 686 LINE",
"468 686 LINE",
"379 126 LINE",
"393 126 LINE",
"518 200 LINE",
"595 686 LINE",
"707 686 LINE",
"619 132 LINE",
"403 10 LINE",
"13 10 LINE",
"120 686 LINE",
"233 686 LINE",
"144 126 LINE",
"266 126 LINE"
);
}
);
width = 611;
}
);
unicode = 0057;
},
{
glyphname = X;
layers = (
{
layerId = "F2D4BABB-D5EC-4775-ADE2-E484DFADF6C4";
paths = (
{
nodes = (
"368 560 LINE",
"388 686 LINE",
"501 686 LINE",
"474 512 LINE",
"330 346 LINE",
"421 181 LINE",
"394 10 LINE",
"281 10 LINE",
"300 132 LINE",
"240 242 LINE",
"145 132 LINE",
"126 10 LINE",
"13 10 LINE",
"40 181 LINE",
"183 346 LINE",
"93 512 LINE",
"120 686 LINE",
"233 686 LINE",
"213 560 LINE",
"273 450 LINE"
);
}
);
width = 405;
}
);
unicode = 0058;
},
{
glyphname = Y;
layers = (
{
layerId = "F2D4BABB-D5EC-4775-ADE2-E484DFADF6C4";
paths = (
{
nodes = (
"269 420 LINE",
"358 474 LINE",
"391 686 LINE",
"503 686 LINE",
"459 410 LINE",
"308 314 LINE",
"260 10 LINE",
"146 10 LINE",
"194 313 LINE",
"76 410 LINE",
"120 686 LINE",
"232 686 LINE",
"199 474 LINE"
);
}
);
width = 407;
}
);
unicode = 0059;
},
{
glyphname = Z;
layers = (
{
layerId = "F2D4BABB-D5EC-4775-ADE2-E484DFADF6C4";
paths = (
{
nodes = (
"120 686 LINE",
"519 686 LINE",
"501 569 LINE",
"175 133 LINE",
"433 133 LINE",
"412 10 LINE",
"13 10 LINE",
"32 132 LINE",
"366 569 LINE",
"102 569 LINE"
);
}
);
width = 424;
}
);
unicode = 005A;
},
{
glyphname = bracketleft;
layers = (
{
layerId = "F2D4BABB-D5EC-4775-ADE2-E484DFADF6C4";
paths = (
{
nodes = (
"156 -84 LINE",
"443 -84 LINE",
"424 -201 LINE",
"25 -201 LINE",
"200 904 LINE",
"599 904 LINE",
"580 781 LINE",
"293 781 LINE"
);
}
);
width = 235;
}
);
unicode = 005B;
},
{
glyphname = backslash;
layers = (
{
layerId = "F2D4BABB-D5EC-4775-ADE2-E484DFADF6C4";
paths = (
{
nodes = (
"115 686 LINE",
"239 686 LINE",
"480 10 LINE",
"356 10 LINE"
);
}
);
width = 500;
}
);
unicode = 005C;
},
{
glyphname = bracketright;
layers = (
{
layerId = "F2D4BABB-D5EC-4775-ADE2-E484DFADF6C4";
paths = (
{
nodes = (
"199 787 LINE",
"-88 787 LINE",
"-69 904 LINE",
"330 904 LINE",
"155 -201 LINE",
"-244 -201 LINE",
"-225 -78 LINE",
"62 -78 LINE"
);
}
);
width = 235;
}
);
unicode = 005D;
},
{
glyphname = asciicircum;
layers = (
{
layerId = "F2D4BABB-D5EC-4775-ADE2-E484DFADF6C4";
paths = (
{
nodes = (
"229 297 LINE",
"74 297 LINE",
"423 671 LINE",
"486 671 LINE",
"677 297 LINE",
"547 297 LINE",
"433 513 LINE"
);
}
);
width = 651;
}
);
unicode = 005E;
},
{
glyphname = underscore;
layers = (
{
layerId = "F2D4BABB-D5EC-4775-ADE2-E484DFADF6C4";
paths = (
{
nodes = (
"361 -163 LINE",
"16 -163 LINE",
"34 -49 LINE",
"379 -49 LINE"
);
}
);
width = 394;
}
);
unicode = 005F;
},
{
glyphname = grave;
layers = (
{
layerId = "F2D4BABB-D5EC-4775-ADE2-E484DFADF6C4";
paths = (
{
nodes = (
"247 833 LINE",
"362 833 LINE",
"435 726 LINE",
"320 726 LINE"
);
}
);
width = 343;
}
);
unicode = 0060;
},
{
glyphname = a;
layers = (
{
layerId = "F2D4BABB-D5EC-4775-ADE2-E484DFADF6C4";
paths = (
{
nodes = (
"334 232 LINE",
"161 232 LINE",
"126 10 LINE",
"13 10 LINE",
"120 686 LINE",
"321 686 LINE",
"499 564 LINE",
"411 10 LINE",
"299 10 LINE"
);
},
{
nodes = (
"352 345 LINE",
"376 496 LINE",
"275 569 LINE",
"215 569 LINE",
"179 345 LINE"
);
}
);
width = 422;
}
);
unicode = 0061;
},
{
glyphname = b;
layers = (
{
layerId = "F2D4BABB-D5EC-4775-ADE2-E484DFADF6C4";
paths = (
{
nodes = (
"519 686 LINE",
"487 481 LINE",
"408 425 LINE",
"478 425 LINE",
"428 113 LINE",
"257 10 LINE",
"13 10 LINE",
"120 686 LINE"
);
},
{
nodes = (
"350 328 LINE",
"271 328 LINE",
"164 252 LINE",
"146 133 LINE",
"233 133 LINE",
"329 192 LINE"
);
},
{
nodes = (
"381 523 LINE",
"389 569 LINE",
"215 569 LINE",
"186 386 LINE"
);
}
);
width = 423;
}
);
unicode = 0062;
},
{
glyphname = c;
layers = (
{
layerId = "F2D4BABB-D5EC-4775-ADE2-E484DFADF6C4";
paths = (
{
nodes = (
"519 686 LINE",
"501 569 LINE",
"215 569 LINE",
"146 133 LINE",
"432 133 LINE",
"412 10 LINE",
"13 10 LINE",
"120 686 LINE"
);
}
);
width = 423;
}
);
unicode = 0063;
},
{
glyphname = d;
layers = (
{
layerId = "F2D4BABB-D5EC-4775-ADE2-E484DFADF6C4";
paths = (
{
nodes = (
"321 686 LINE",
"499 563 LINE",
"411 10 LINE",
"13 10 LINE",
"120 686 LINE"
);
},
{
nodes = (
"215 569 LINE",
"146 133 LINE",
"319 133 LINE",
"376 495 LINE",
"275 569 LINE"
);
}
);
width = 422;
}
);
unicode = 0064;
},
{
glyphname = e;
layers = (
{
layerId = "F2D4BABB-D5EC-4775-ADE2-E484DFADF6C4";
paths = (
{
nodes = (
"189 406 LINE",
"374 484 LINE",
"354 358 LINE",
"169 280 LINE",
"146 133 LINE",
"420 133 LINE",
"400 10 LINE",
"13 10 LINE",
"120 686 LINE",
"507 686 LINE",
"489 569 LINE",
"215 569 LINE"
);
}
);
width = 411;
}
);
unicode = 0065;
},
{
glyphname = f;
layers = (
{
layerId = "F2D4BABB-D5EC-4775-ADE2-E484DFADF6C4";
paths = (
{
nodes = (
"480 686 LINE",
"462 569 LINE",
"215 569 LINE",
"189 410 LINE",
"366 491 LINE",
"346 365 LINE",
"169 284 LINE",
"126 10 LINE",
"13 10 LINE",
"120 686 LINE"
);
}
);
width = 384;
}
);
unicode = 0066;
},
{
glyphname = g;
layers = (
{
layerId = "F2D4BABB-D5EC-4775-ADE2-E484DFADF6C4";
paths = (
{
nodes = (
"519 686 LINE",
"501 569 LINE",
"215 569 LINE",
"146 133 LINE",
"320 133 LINE",
"344 288 LINE",
"229 227 LINE",
"249 359 LINE",
"485 472 LINE",
"412 10 LINE",
"13 10 LINE",
"120 686 LINE"
);
}
);
width = 423;
}
);
unicode = 0067;
},
{
glyphname = h;
layers = (
{
layerId = "F2D4BABB-D5EC-4775-ADE2-E484DFADF6C4";
paths = (
{
nodes = (
"415 10 LINE",
"301 10 LINE",
"352 330 LINE",
"177 330 LINE",
"126 10 LINE",
"13 10 LINE",
"120 686 LINE",
"233 686 LINE",
"195 444 LINE",
"370 444 LINE",
"408 686 LINE",
"522 686 LINE"
);
}
);
width = 426;
}
);
unicode = 0068;
},
{
glyphname = i;
layers = (
{
layerId = "F2D4BABB-D5EC-4775-ADE2-E484DFADF6C4";
paths = (
{
nodes = (
"120 686 LINE",
"233 686 LINE",
"126 10 LINE",
"13 10 LINE"
);
}
);
width = 137;
}
);
unicode = 0069;
},
{
glyphname = j;
layers = (
{
layerId = "F2D4BABB-D5EC-4775-ADE2-E484DFADF6C4";
paths = (
{
nodes = (
"102 569 LINE",
"120 686 LINE",
"514 686 LINE",
"421 95 LINE",
"208 10 LINE",
"27 95 LINE",
"57 287 LINE",
"169 287 LINE",
"150 170 LINE",
"228 133 LINE",
"319 170 LINE",
"383 569 LINE"
);
}
);
width = 418;
}
);
unicode = 006A;
},
{
glyphname = k;
layers = (
{
layerId = "F2D4BABB-D5EC-4775-ADE2-E484DFADF6C4";
paths = (
{
nodes = (
"370 514 LINE",
"397 686 LINE",
"519 686 LINE",
"486 477 LINE",
"407 421 LINE",
"477 421 LINE",
"412 10 LINE",
"300 10 LINE",
"350 324 LINE",
"271 324 LINE",
"164 248 LINE",
"126 10 LINE",
"13 10 LINE",
"120 686 LINE",
"233 686 LINE",
"186 390 LINE"
);
}
);
width = 423;
}
);
unicode = 006B;
},
{
glyphname = l;
layers = (
{
layerId = "F2D4BABB-D5EC-4775-ADE2-E484DFADF6C4";
paths = (
{
nodes = (
"146 133 LINE",
"403 133 LINE",
"383 10 LINE",
"13 10 LINE",
"120 686 LINE",
"233 686 LINE"
);
}
);
width = 394;
}
);
unicode = 006C;
},
{
glyphname = m;
layers = (
{
layerId = "F2D4BABB-D5EC-4775-ADE2-E484DFADF6C4";
paths = (
{
nodes = (
"337 569 LINE",
"215 569 LINE",
"126 10 LINE",
"13 10 LINE",
"120 686 LINE",
"510 686 LINE",
"688 564 LINE",
"600 10 LINE",
"488 10 LINE",
"565 496 LINE",
"464 569 LINE",
"450 569 LINE",
"361 10 LINE",
"248 10 LINE"
);
}
);
width = 611;
}
);
unicode = 006D;
},
{
glyphname = n;
layers = (
{
layerId = "F2D4BABB-D5EC-4775-ADE2-E484DFADF6C4";
paths = (
{
nodes = (
"215 569 LINE",
"126 10 LINE",
"13 10 LINE",
"120 686 LINE",
"321 686 LINE",
"499 563 LINE",
"411 10 LINE",
"299 10 LINE",
"376 495 LINE",
"275 569 LINE"
);
}
);
width = 422;
}
);
unicode = 006E;
},
{
glyphname = o;
layers = (
{
layerId = "F2D4BABB-D5EC-4775-ADE2-E484DFADF6C4";
paths = (
{
nodes = (
"519 686 LINE",
"412 10 LINE",
"13 10 LINE",
"120 686 LINE"
);
},
{
nodes = (
"388 569 LINE",
"214 569 LINE",
"145 133 LINE",
"319 133 LINE"
);
}
);
width = 423;
}
);
unicode = 006F;
},
{
glyphname = p;
layers = (
{
layerId = "F2D4BABB-D5EC-4775-ADE2-E484DFADF6C4";
paths = (
{
nodes = (
"126 10 LINE",
"13 10 LINE",
"120 686 LINE",
"506 686 LINE",
"464 419 LINE",
"155 190 LINE"
);
},
{
nodes = (
"356 469 LINE",
"372 569 LINE",
"215 569 LINE",
"177 332 LINE"
);
}
);
width = 410;
}
);
unicode = 0070;
},
{
glyphname = q;
layers = (
{
layerId = "F2D4BABB-D5EC-4775-ADE2-E484DFADF6C4";
paths = (
{
nodes = (
"547 686 LINE",
"440 10 LINE",
"303 10 LINE",
"323 133 LINE",
"347 133 LINE",
"416 569 LINE",
"214 569 LINE",
"145 133 LINE",
"166 133 LINE",
"146 10 LINE",
"13 10 LINE",
"120 686 LINE"
);
},
{
nodes = (
"276 -28 LINE",
"151 -106 LINE",
"210 267 LINE",
"334 335 LINE"
);
}
);
width = 451;
}
);
unicode = 0071;
},
{
glyphname = r;
layers = (
{
layerId = "F2D4BABB-D5EC-4775-ADE2-E484DFADF6C4";
paths = (
{
nodes = (
"126 10 LINE",
"13 10 LINE",
"120 686 LINE",
"519 686 LINE",
"479 434 LINE",
"400 378 LINE",
"470 378 LINE",
"412 10 LINE",
"300 10 LINE",
"343 281 LINE",
"264 281 LINE",
"157 205 LINE"
);
},
{
nodes = (
"375 482 LINE",
"389 569 LINE",
"215 569 LINE",
"179 347 LINE"
);
}
);
width = 423;
}
);
unicode = 0072;
},
{
glyphname = s;
layers = (
{
layerId = "F2D4BABB-D5EC-4775-ADE2-E484DFADF6C4";
paths = (
{
nodes = (
"462 323 LINE",
"412 10 LINE",
"13 10 LINE",
"49 239 LINE",
"161 239 LINE",
"145 133 LINE",
"318 133 LINE",
"337 253 LINE",
"76 405 LINE",
"120 686 LINE",
"519 686 LINE",
"492 516 LINE",
"370 467 LINE",
"387 569 LINE",
"215 569 LINE",
"199 472 LINE"
);
}
);
width = 423;
}
);
unicode = 0073;
},
{
glyphname = t;
layers = (
{
layerId = "F2D4BABB-D5EC-4775-ADE2-E484DFADF6C4";
paths = (
{
nodes = (
"120 686 LINE",
"473 686 LINE",
"455 569 LINE",
"337 569 LINE",
"248 10 LINE",
"135 10 LINE",
"224 569 LINE",
"102 569 LINE"
);
}
);
width = 377;
}
);
unicode = 0074;
},
{
glyphname = u;
layers = (
{
layerId = "F2D4BABB-D5EC-4775-ADE2-E484DFADF6C4";
paths = (
{
nodes = (
"406 686 LINE",
"519 686 LINE",
"412 10 LINE",
"13 10 LINE",
"120 686 LINE",
"232 686 LINE",
"145 133 LINE",
"319 133 LINE"
);
}
);
width = 423;
}
);
unicode = 0075;
},
{
glyphname = v;
layers = (
{
layerId = "F2D4BABB-D5EC-4775-ADE2-E484DFADF6C4";
paths = (
{
nodes = (
"204 126 LINE",
"329 200 LINE",
"406 686 LINE",
"518 686 LINE",
"430 132 LINE",
"214 10 LINE",
"13 10 LINE",
"120 686 LINE",
"233 686 LINE",
"144 126 LINE"
);
}
);
width = 422;
}
);
unicode = 0076;
},
{
glyphname = w;
layers = (
{
layerId = "F2D4BABB-D5EC-4775-ADE2-E484DFADF6C4";
paths = (
{
nodes = (
"355 686 LINE",
"468 686 LINE",
"379 126 LINE",
"393 126 LINE",
"518 200 LINE",
"595 686 LINE",
"707 686 LINE",
"619 132 LINE",
"403 10 LINE",
"13 10 LINE",
"120 686 LINE",
"233 686 LINE",
"144 126 LINE",
"266 126 LINE"
);
}
);
width = 611;
}
);
unicode = 0077;
},
{
glyphname = x;
layers = (
{
layerId = "F2D4BABB-D5EC-4775-ADE2-E484DFADF6C4";
paths = (
{
nodes = (
"368 560 LINE",
"388 686 LINE",
"501 686 LINE",
"474 512 LINE",
"330 346 LINE",
"421 181 LINE",
"394 10 LINE",
"281 10 LINE",
"300 132 LINE",
"240 242 LINE",
"145 132 LINE",
"126 10 LINE",
"13 10 LINE",
"40 181 LINE",
"183 346 LINE",
"93 512 LINE",
"120 686 LINE",
"233 686 LINE",
"213 560 LINE",
"273 450 LINE"
);
}
);
width = 405;
}
);
unicode = 0078;
},
{
glyphname = y;
layers = (
{
layerId = "F2D4BABB-D5EC-4775-ADE2-E484DFADF6C4";
paths = (
{
nodes = (
"269 420 LINE",
"358 474 LINE",
"391 686 LINE",
"503 686 LINE",
"459 410 LINE",
"308 314 LINE",
"260 10 LINE",
"146 10 LINE",
"194 313 LINE",
"76 410 LINE",
"120 686 LINE",
"232 686 LINE",
"199 474 LINE"
);
}
);
width = 407;
}
);
unicode = 0079;
},
{
glyphname = z;
layers = (
{
layerId = "F2D4BABB-D5EC-4775-ADE2-E484DFADF6C4";
paths = (
{
nodes = (
"120 686 LINE",
"519 686 LINE",
"501 569 LINE",
"175 133 LINE",
"433 133 LINE",
"412 10 LINE",
"13 10 LINE",
"32 132 LINE",
"366 569 LINE",
"102 569 LINE"
);
}
);
width = 424;
}
);
unicode = 007A;
},
{
glyphname = braceleft;
layers = (
{
layerId = "F2D4BABB-D5EC-4775-ADE2-E484DFADF6C4";
paths = (
{
nodes = (
"89 434 LINE",
"171 468 LINE",
"235 852 LINE",
"445 852 LINE",
"427 736 LINE",
"328 736 LINE",
"273 393 LINE",
"165 350 LINE",
"256 287 LINE",
"200 -66 LINE",
"304 -66 LINE",
"285 -183 LINE",
"68 -183 LINE",
"133 219 LINE",
"63 270 LINE"
);
}
);
width = 273;
}
);
unicode = 007B;
},
{
glyphname = bar;
layers = (
{
layerId = "F2D4BABB-D5EC-4775-ADE2-E484DFADF6C4";
paths = (
{
nodes = (
"200 793 LINE",
"280 793 LINE",
"140 -79 LINE",
"60 -79 LINE"
);
}
);
width = 231;
}
);
unicode = 007C;
},
{
glyphname = braceright;
layers = (
{
layerId = "F2D4BABB-D5EC-4775-ADE2-E484DFADF6C4";
paths = (
{
nodes = (
"279 235 LINE",
"197 201 LINE",
"133 -183 LINE",
"-77 -183 LINE",
"-59 -67 LINE",
"40 -67 LINE",
"95 276 LINE",
"203 319 LINE",
"112 382 LINE",
"168 735 LINE",
"64 735 LINE",
"83 852 LINE",
"300 852 LINE",
"235 450 LINE",
"305 399 LINE"
);
}
);
width = 273;
}
);
unicode = 007D;
},
{
glyphname = asciitilde;
layers = (
{
layerId = "F2D4BABB-D5EC-4775-ADE2-E484DFADF6C4";
paths = (
{
nodes = (
"650 379 LINE",
"616 331 OFFCURVE",
"523 273 OFFCURVE",
"469 273 QCURVE SMOOTH",
"428 273 OFFCURVE",
"374 301 OFFCURVE",
"351 316 QCURVE SMOOTH",
"330 330 OFFCURVE",
"286 353 OFFCURVE",
"257 353 QCURVE SMOOTH",
"221 353 OFFCURVE",
"162 320 OFFCURVE",
"137 292 QCURVE",
"73 365 LINE",
"110 412 OFFCURVE",
"207 469 OFFCURVE",
"261 469 QCURVE SMOOTH",
"299 469 OFFCURVE",
"352 442 OFFCURVE",
"373 427 QCURVE SMOOTH",
"393 413 OFFCURVE",
"438 390 OFFCURVE",
"466 390 QCURVE SMOOTH",
"499 390 OFFCURVE",
"561 426 OFFCURVE",
"584 452 QCURVE"
);
}
);
width = 591;
}
);
unicode = 007E;
},
{
glyphname = hungarumlaut;
layers = (
{
layerId = "F2D4BABB-D5EC-4775-ADE2-E484DFADF6C4";
paths = (
{
nodes = (
"362 726 LINE",
"247 726 LINE",
"320 833 LINE",
"435 833 LINE"
);
},
{
nodes = (
"531 726 LINE",
"416 726 LINE",
"489 833 LINE",
"604 833 LINE"
);
}
);
width = 686;
}
);
unicode = 02DD;
},
{
glyphname = ogonek;
layers = (
{
layerId = "F2D4BABB-D5EC-4775-ADE2-E484DFADF6C4";
paths = (
{
nodes = (
"117 -169 LINE",
"114 -201 LINE",
"290 -201 LINE",
"273 -300 LINE",
"-2 -300 LINE",
"36 -80 LINE",
"174 -80 LINE",
"190 10 LINE",
"294 10 LINE",
"257 -169 LINE"
);
}
);
width = 396;
}
);
unicode = 02DB;
},
{
glyphname = caron;
layers = (
{
layerId = "F2D4BABB-D5EC-4775-ADE2-E484DFADF6C4";
paths = (
{
nodes = (
"362 726 LINE",
"202 726 LINE",
"127 831 LINE",
"237 831 LINE",
"279 771 LINE",
"320 833 LINE",
"435 833 LINE"
);
}
);
width = 833;
}
);
unicode = 02C7;
},
{
glyphname = dotlessi;
layers = (
{
layerId = "F2D4BABB-D5EC-4775-ADE2-E484DFADF6C4";
paths = (
{
nodes = (
"120 686 LINE",
"233 686 LINE",
"126 10 LINE",
"13 10 LINE"
);
}
);
width = 137;
}
);
unicode = 0131;
},
{
glyphname = ring;
layers = (
{
layerId = "F2D4BABB-D5EC-4775-ADE2-E484DFADF6C4";
paths = (
{
nodes = (
"121 847 OFFCURVE",
"136 884 OFFCURVE",
"163 912 OFFCURVE",
"200 928 OFFCURVE",
"221 928 QCURVE SMOOTH",
"242 928 OFFCURVE",
"278 912 OFFCURVE",
"305 884 OFFCURVE",
"321 847 OFFCURVE",
"321 826 QCURVE SMOOTH",
"321 805 OFFCURVE",
"305 768 OFFCURVE",
"278 741 OFFCURVE",
"242 725 OFFCURVE",
"221 725 QCURVE SMOOTH",
"200 725 OFFCURVE",
"163 741 OFFCURVE",
"136 768 OFFCURVE",
"121 805 OFFCURVE",
"121 826 QCURVE SMOOTH"
);
},
{
nodes = (
"184 811 OFFCURVE",
"205 791 OFFCURVE",
"219 791 QCURVE SMOOTH",
"235 791 OFFCURVE",
"255 811 OFFCURVE",
"255 826 QCURVE SMOOTH",
"255 841 OFFCURVE",
"235 861 OFFCURVE",
"219 861 QCURVE SMOOTH",
"205 861 OFFCURVE",
"184 841 OFFCURVE",
"184 826 QCURVE SMOOTH"
);
}
);
width = 358;
}
);
unicode = 02DA;
},
{
glyphname = breve;
layers = (
{
layerId = "F2D4BABB-D5EC-4775-ADE2-E484DFADF6C4";
paths = (
{
nodes = (
"278 802 OFFCURVE",
"304 823 OFFCURVE",
"306 840 QCURVE",
"401 840 LINE",
"399 813 OFFCURVE",
"376 765 OFFCURVE",
"339 731 OFFCURVE",
"289 711 OFFCURVE",
"261 711 QCURVE SMOOTH",
"232 711 OFFCURVE",
"183 731 OFFCURVE",
"146 765 OFFCURVE",
"124 813 OFFCURVE",
"123 840 QCURVE",
"216 840 LINE",
"218 823 OFFCURVE",
"244 802 OFFCURVE",
"261 802 QCURVE SMOOTH"
);
}
);
width = 424;
}
);
unicode = 02D8;
},
{
glyphname = dotaccent;
layers = (
{
layerId = "F2D4BABB-D5EC-4775-ADE2-E484DFADF6C4";
paths = (
{
nodes = (
"266 859 LINE",
"405 859 LINE",
"383 727 LINE",
"244 727 LINE"
);
}
);
width = 833;
}
);
unicode = 02D9;
},
{
glyphname = quotesinglbase;
layers = (
{
layerId = "F2D4BABB-D5EC-4775-ADE2-E484DFADF6C4";
paths = (
{
nodes = (
"13 10 LINE",
"39 177 LINE",
"152 177 LINE",
"126 10 LINE"
);
}
);
width = 115;
}
);
unicode = 201A;
},
{
glyphname = quotedblbase;
layers = (
{
layerId = "F2D4BABB-D5EC-4775-ADE2-E484DFADF6C4";
paths = (
{
nodes = (
"26 10 LINE",
"52 177 LINE",
"165 177 LINE",
"139 10 LINE"
);
},
{
nodes = (
"175 10 LINE",
"201 177 LINE",
"314 177 LINE",
"288 10 LINE"
);
}
);
width = 310;
}
);
unicode = 201E;
},
{
glyphname = ellipsis;
layers = (
{
layerId = "F2D4BABB-D5EC-4775-ADE2-E484DFADF6C4";
paths = (
{
nodes = (
"53 177 LINE",
"166 177 LINE",
"149 69 LINE",
"36 69 LINE"
);
},
{
nodes = (
"221 177 LINE",
"334 177 LINE",
"317 69 LINE",
"204 69 LINE"
);
},
{
nodes = (
"389 177 LINE",
"502 177 LINE",
"485 69 LINE",
"372 69 LINE"
);
}
);
width = 504;
}
);
unicode = 2026;
},
{
glyphname = circumflex;
layers = (
{
layerId = "F2D4BABB-D5EC-4775-ADE2-E484DFADF6C4";
paths = (
{
nodes = (
"435 726 LINE",
"320 726 LINE",
"279 788 LINE",
"237 728 LINE",
"127 728 LINE",
"202 833 LINE",
"362 833 LINE"
);
}
);
width = 833;
}
);
unicode = 02C6;
},
{
glyphname = OE;
layers = (
{
layerId = "F2D4BABB-D5EC-4775-ADE2-E484DFADF6C4";
paths = (
{
nodes = (
"475 406 LINE",
"660 484 LINE",
"640 358 LINE",
"455 280 LINE",
"432 133 LINE",
"706 133 LINE",
"686 10 LINE",
"13 10 LINE",
"120 686 LINE",
"793 686 LINE",
"775 569 LINE",
"501 569 LINE"
);
},
{
nodes = (
"145 133 LINE",
"318 133 LINE",
"387 569 LINE",
"214 569 LINE"
);
}
);
width = 696;
}
);
unicode = 0152;
},
{
glyphname = guilsinglleft;
layers = (
{
layerId = "F2D4BABB-D5EC-4775-ADE2-E484DFADF6C4";
paths = (
{
nodes = (
"412 174 LINE",
"390 33 LINE",
"69 298 LINE",
"83 384 LINE",
"488 649 LINE",
"465 509 LINE",
"210 341 LINE"
);
}
);
width = 407;
}
);
unicode = 2039;
},
{
glyphname = quoteleft;
layers = (
{
layerId = "F2D4BABB-D5EC-4775-ADE2-E484DFADF6C4";
paths = (
{
nodes = (
"167 686 LINE",
"280 686 LINE",
"242 451 LINE",
"129 451 LINE"
);
}
);
width = 224;
}
);
unicode = 2018;
},
{
glyphname = quoteright;
layers = (
{
layerId = "F2D4BABB-D5EC-4775-ADE2-E484DFADF6C4";
paths = (
{
nodes = (
"167 686 LINE",
"280 686 LINE",
"242 451 LINE",
"129 451 LINE"
);
}
);
width = 224;
}
);
unicode = 2019;
},
{
glyphname = quotedblleft;
layers = (
{
layerId = "F2D4BABB-D5EC-4775-ADE2-E484DFADF6C4";
paths = (
{
nodes = (
"128 686 LINE",
"241 686 LINE",
"203 451 LINE",
"90 451 LINE"
);
},
{
nodes = (
"269 686 LINE",
"382 686 LINE",
"344 451 LINE",
"231 451 LINE"
);
}
);
width = 294;
}
);
unicode = 201C;
},
{
glyphname = quotedblright;
layers = (
{
layerId = "F2D4BABB-D5EC-4775-ADE2-E484DFADF6C4";
paths = (
{
nodes = (
"128 686 LINE",
"241 686 LINE",
"203 451 LINE",
"90 451 LINE"
);
},
{
nodes = (
"269 686 LINE",
"382 686 LINE",
"344 451 LINE",
"231 451 LINE"
);
}
);
width = 294;
}
);
unicode = 201D;
},
{
glyphname = bullet;
layers = (
{
layerId = "F2D4BABB-D5EC-4775-ADE2-E484DFADF6C4";
paths = (
{
nodes = (
"95 390 OFFCURVE",
"113 433 OFFCURVE",
"145 465 OFFCURVE",
"188 484 OFFCURVE",
"212 484 QCURVE SMOOTH",
"236 484 OFFCURVE",
"279 465 OFFCURVE",
"311 433 OFFCURVE",
"330 390 OFFCURVE",
"330 366 QCURVE SMOOTH",
"330 342 OFFCURVE",
"311 299 OFFCURVE",
"279 267 OFFCURVE",
"236 249 OFFCURVE",
"212 249 QCURVE SMOOTH",
"188 249 OFFCURVE",
"145 267 OFFCURVE",
"113 299 OFFCURVE",
"95 342 OFFCURVE",
"95 366 QCURVE SMOOTH"
);
}
);
width = 315;
}
);
unicode = 2022;
},
{
glyphname = endash;
layers = (
{
layerId = "F2D4BABB-D5EC-4775-ADE2-E484DFADF6C4";
paths = (
{
nodes = (
"482 318 LINE",
"82 318 LINE",
"100 432 LINE",
"500 432 LINE"
);
}
);
width = 475;
}
);
unicode = 2013;
},
{
glyphname = emdash;
layers = (
{
layerId = "F2D4BABB-D5EC-4775-ADE2-E484DFADF6C4";
paths = (
{
nodes = (
"633 318 LINE",
"82 318 LINE",
"100 432 LINE",
"651 432 LINE"
);
}
);
width = 621;
}
);
unicode = 2014;
},
{
glyphname = tilde;
layers = (
{
layerId = "F2D4BABB-D5EC-4775-ADE2-E484DFADF6C4";
paths = (
{
nodes = (
"489 810 LINE",
"466 775 OFFCURVE",
"399 730 OFFCURVE",
"361 730 QCURVE SMOOTH",
"336 730 OFFCURVE",
"302 745 OFFCURVE",
"275 762 OFFCURVE",
"251 777 OFFCURVE",
"235 777 QCURVE SMOOTH",
"214 777 OFFCURVE",
"178 751 OFFCURVE",
"165 733 QCURVE",
"106 798 LINE",
"130 833 OFFCURVE",
"199 877 OFFCURVE",
"237 877 QCURVE SMOOTH",
"261 877 OFFCURVE",
"294 863 OFFCURVE",
"320 845 OFFCURVE",
"344 831 OFFCURVE",
"359 831 QCURVE SMOOTH",
"381 831 OFFCURVE",
"416 856 OFFCURVE",
"429 876 QCURVE"
);
}
);
width = 543;
}
);
unicode = 02DC;
},
{
glyphname = trademark;
layers = (
{
layerId = "F2D4BABB-D5EC-4775-ADE2-E484DFADF6C4";
paths = (
{
nodes = (
"126 686 LINE",
"279 686 LINE",
"271 635 LINE",
"220 635 LINE",
"181 394 LINE",
"133 394 LINE",
"171 635 LINE",
"118 635 LINE"
);
},
{
nodes = (
"383 635 LINE",
"330 635 LINE",
"292 394 LINE",
"243 394 LINE",
"289 686 LINE",
"457 686 LINE",
"534 633 LINE",
"496 394 LINE",
"448 394 LINE",
"481 604 LINE",
"438 635 LINE",
"432 635 LINE",
"393 394 LINE",
"344 394 LINE"
);
}
);
width = 479;
}
);
unicode = 2122;
},
{
glyphname = guilsinglright;
layers = (
{
layerId = "F2D4BABB-D5EC-4775-ADE2-E484DFADF6C4";
paths = (
{
nodes = (
"126 508 LINE",
"148 649 LINE",
"469 384 LINE",
"455 298 LINE",
"50 33 LINE",
"73 173 LINE",
"328 341 LINE"
);
}
);
width = 427;
}
);
unicode = 203A;
},
{
glyphname = oe;
layers = (
{
layerId = "F2D4BABB-D5EC-4775-ADE2-E484DFADF6C4";
paths = (
{
nodes = (
"475 406 LINE",
"660 484 LINE",
"640 358 LINE",
"455 280 LINE",
"432 133 LINE",
"706 133 LINE",
"686 10 LINE",
"13 10 LINE",
"120 686 LINE",
"793 686 LINE",
"775 569 LINE",
"501 569 LINE"
);
},
{
nodes = (
"145 133 LINE",
"318 133 LINE",
"387 569 LINE",
"214 569 LINE"
);
}
);
width = 696;
}
);
unicode = 0153;
},
{
glyphname = questiondown;
layers = (
{
layerId = "F2D4BABB-D5EC-4775-ADE2-E484DFADF6C4";
paths = (
{
nodes = (
"525 427 LINE",
"195 173 LINE",
"187 127 LINE",
"361 127 LINE",
"368 169 LINE",
"481 169 LINE",
"456 10 LINE",
"57 10 LINE",
"89 215 LINE",
"417 473 LINE",
"425 525 LINE",
"538 525 LINE"
);
},
{
nodes = (
"563 686 LINE",
"544 564 LINE",
"429 564 LINE",
"448 686 LINE"
);
}
);
width = 500;
}
);
unicode = 00BF;
},
{
glyphname = ordmasculine;
layers = (
{
layerId = "F2D4BABB-D5EC-4775-ADE2-E484DFADF6C4";
paths = (
{
nodes = (
"295 673 LINE",
"250 387 LINE",
"81 387 LINE",
"127 673 LINE"
);
},
{
nodes = (
"240 623 LINE",
"166 623 LINE",
"137 439 LINE",
"211 439 LINE"
);
}
);
width = 229;
}
);
unicode = 00BA;
},
{
glyphname = paragraph;
layers = (
{
layerId = "F2D4BABB-D5EC-4775-ADE2-E484DFADF6C4";
paths = (
{
nodes = (
"138 686 LINE",
"806 686 LINE",
"788 572 LINE",
"697 572 LINE",
"575 -203 LINE",
"462 -203 LINE",
"584 572 LINE",
"457 572 LINE",
"335 -203 LINE",
"222 -203 LINE",
"308 346 LINE",
"82 346 LINE"
);
}
);
width = 728;
}
);
unicode = 00B6;
},
{
glyphname = cedilla;
layers = (
{
layerId = "F2D4BABB-D5EC-4775-ADE2-E484DFADF6C4";
paths = (
{
nodes = (
"428 -140 LINE",
"401 -301 LINE",
"122 -301 LINE",
"140 -198 LINE",
"311 -198 LINE",
"154 -119 LINE",
"178 10 LINE",
"285 10 LINE",
"270 -63 LINE"
);
}
);
width = 481;
}
);
unicode = 00B8;
},
{
glyphname = periodcentered;
layers = (
{
layerId = "F2D4BABB-D5EC-4775-ADE2-E484DFADF6C4";
paths = (
{
nodes = (
"97 444 LINE",
"236 444 LINE",
"214 312 LINE",
"75 312 LINE"
);
}
);
width = 184;
}
);
unicode = 00B7;
},
{
glyphname = acute;
layers = (
{
layerId = "F2D4BABB-D5EC-4775-ADE2-E484DFADF6C4";
paths = (
{
nodes = (
"362 726 LINE",
"247 726 LINE",
"320 833 LINE",
"435 833 LINE"
);
}
);
width = 343;
}
);
unicode = 00B4;
},
{
glyphname = registered;
layers = (
{
layerId = "F2D4BABB-D5EC-4775-ADE2-E484DFADF6C4";
paths = (
{
nodes = (
"104 526 OFFCURVE",
"135 599 OFFCURVE",
"189 653 OFFCURVE",
"260 685 OFFCURVE",
"301 685 QCURVE SMOOTH",
"341 685 OFFCURVE",
"413 653 OFFCURVE",
"467 599 OFFCURVE",
"498 526 OFFCURVE",
"498 485 QCURVE SMOOTH",
"498 444 OFFCURVE",
"467 372 OFFCURVE",
"413 318 OFFCURVE",
"341 287 OFFCURVE",
"301 287 QCURVE SMOOTH",
"260 287 OFFCURVE",
"189 318 OFFCURVE",
"135 372 OFFCURVE",
"104 444 OFFCURVE",
"104 485 QCURVE SMOOTH"
);
},
{
nodes = (
"143 453 OFFCURVE",
"168 396 OFFCURVE",
"211 353 OFFCURVE",
"268 328 OFFCURVE",
"301 328 QCURVE SMOOTH",
"334 328 OFFCURVE",
"391 353 OFFCURVE",
"434 396 OFFCURVE",
"459 453 OFFCURVE",
"459 486 QCURVE SMOOTH",
"459 519 OFFCURVE",
"434 576 OFFCURVE",
"391 619 OFFCURVE",
"334 644 OFFCURVE",
"301 644 QCURVE SMOOTH",
"268 644 OFFCURVE",
"211 619 OFFCURVE",
"168 576 OFFCURVE",
"143 519 OFFCURVE",
"143 486 QCURVE SMOOTH"
);
},
{
nodes = (
"251 375 LINE",
"213 375 LINE",
"249 597 LINE",
"378 597 LINE",
"366 514 LINE",
"340 496 LINE",
"362 496 LINE",
"343 375 LINE",
"307 375 LINE",
"321 464 LINE",
"296 464 LINE",
"261 439 LINE"
);
},
{
nodes = (
"332 530 LINE",
"336 559 LINE",
"279 559 LINE",
"268 485 LINE"
);
}
);
width = 450;
}
);
unicode = 00AE;
},
{
glyphname = macron;
layers = (
{
layerId = "F2D4BABB-D5EC-4775-ADE2-E484DFADF6C4";
paths = (
{
nodes = (
"466 727 LINE",
"186 727 LINE",
"204 841 LINE",
"484 841 LINE"
);
}
);
width = 504;
}
);
unicode = 00AF;
},
{
glyphname = degree;
layers = (
{
layerId = "F2D4BABB-D5EC-4775-ADE2-E484DFADF6C4";
paths = (
{
nodes = (
"106 574 OFFCURVE",
"130 630 OFFCURVE",
"171 672 OFFCURVE",
"226 696 OFFCURVE",
"258 696 QCURVE SMOOTH",
"289 696 OFFCURVE",
"345 672 OFFCURVE",
"387 630 OFFCURVE",
"411 574 OFFCURVE",
"411 543 QCURVE SMOOTH",
"411 511 OFFCURVE",
"387 456 OFFCURVE",
"345 415 OFFCURVE",
"289 391 OFFCURVE",
"258 391 QCURVE SMOOTH",
"226 391 OFFCURVE",
"171 415 OFFCURVE",
"130 456 OFFCURVE",
"106 511 OFFCURVE",
"106 543 QCURVE SMOOTH"
);
},
{
nodes = (
"172 507 OFFCURVE",
"222 457 OFFCURVE",
"258 457 QCURVE SMOOTH",
"294 457 OFFCURVE",
"345 507 OFFCURVE",
"345 543 QCURVE SMOOTH",
"345 579 OFFCURVE",
"294 630 OFFCURVE",
"258 630 QCURVE SMOOTH",
"222 630 OFFCURVE",
"172 579 OFFCURVE",
"172 543 QCURVE SMOOTH"
);
}
);
width = 346;
}
);
unicode = 00B0;
},
{
glyphname = minus;
layers = (
{
layerId = "F2D4BABB-D5EC-4775-ADE2-E484DFADF6C4";
paths = (
{
nodes = (
"362 318 LINE",
"82 318 LINE",
"100 432 LINE",
"380 432 LINE"
);
}
);
width = 337;
}
);
unicode = 2212;
},
{
glyphname = section;
layers = (
{
layerId = "F2D4BABB-D5EC-4775-ADE2-E484DFADF6C4";
paths = (
{
nodes = (
"472 136 LINE",
"422 -177 LINE",
"23 -177 LINE",
"59 52 LINE",
"171 52 LINE",
"155 -54 LINE",
"328 -54 LINE",
"347 66 LINE",
"86 218 LINE",
"130 499 LINE",
"274 499 LINE",
"144 575 LINE",
"188 856 LINE",
"587 856 LINE",
"560 686 LINE",
"438 637 LINE",
"455 739 LINE",
"283 739 LINE",
"267 642 LINE",
"530 493 LINE",
"480 201 LINE",
"341 201 LINE"
);
},
{
nodes = (
"380 303 LINE",
"394 382 LINE",
"225 382 LINE",
"224 376 LINE",
"213 303 LINE"
);
}
);
width = 497;
}
);
unicode = 00A7;
},
{
glyphname = dieresis;
layers = (
{
layerId = "F2D4BABB-D5EC-4775-ADE2-E484DFADF6C4";
paths = (
{
nodes = (
"287 835 LINE",
"400 835 LINE",
"383 727 LINE",
"270 727 LINE"
);
},
{
nodes = (
"470 835 LINE",
"583 835 LINE",
"566 727 LINE",
"453 727 LINE"
);
}
);
width = 833;
}
);
unicode = 00A8;
},
{
glyphname = ordfeminine;
layers = (
{
layerId = "F2D4BABB-D5EC-4775-ADE2-E484DFADF6C4";
paths = (
{
nodes = (
"226 481 LINE",
"153 481 LINE",
"138 387 LINE",
"90 387 LINE",
"136 673 LINE",
"221 673 LINE",
"296 622 LINE",
"259 387 LINE",
"211 387 LINE"
);
},
{
nodes = (
"234 529 LINE",
"244 592 LINE",
"201 623 LINE",
"176 623 LINE",
"160 529 LINE"
);
}
);
width = 221;
}
);
unicode = 00AA;
},
{
glyphname = copyright;
layers = (
{
layerId = "F2D4BABB-D5EC-4775-ADE2-E484DFADF6C4";
paths = (
{
nodes = (
"114 481 OFFCURVE",
"153 571 OFFCURVE",
"220 638 OFFCURVE",
"310 677 OFFCURVE",
"361 677 QCURVE SMOOTH",
"412 677 OFFCURVE",
"502 638 OFFCURVE",
"569 571 OFFCURVE",
"608 481 OFFCURVE",
"608 430 QCURVE SMOOTH",
"608 379 OFFCURVE",
"569 289 OFFCURVE",
"502 222 OFFCURVE",
"412 183 OFFCURVE",
"361 183 QCURVE SMOOTH",
"310 183 OFFCURVE",
"220 222 OFFCURVE",
"153 289 OFFCURVE",
"114 379 OFFCURVE",
"114 430 QCURVE SMOOTH"
);
},
{
nodes = (
"178 392 OFFCURVE",
"207 325 OFFCURVE",
"256 276 OFFCURVE",
"323 247 OFFCURVE",
"361 247 QCURVE SMOOTH",
"399 247 OFFCURVE",
"466 276 OFFCURVE",
"515 325 OFFCURVE",
"544 392 OFFCURVE",
"544 430 QCURVE SMOOTH",
"544 468 OFFCURVE",
"515 535 OFFCURVE",
"466 584 OFFCURVE",
"399 613 OFFCURVE",
"361 613 QCURVE SMOOTH",
"323 613 OFFCURVE",
"256 584 OFFCURVE",
"207 535 OFFCURVE",
"178 468 OFFCURVE",
"178 430 QCURVE SMOOTH"
);
},
{
nodes = (
"451 549 LINE",
"440 484 LINE",
"352 484 LINE",
"347 460 OFFCURVE",
"341 421 OFFCURVE",
"336 394 QCURVE",
"425 394 LINE",
"413 328 LINE",
"260 328 LINE",
"298 549 LINE"
);
}
);
width = 599;
}
);
unicode = 00A9;
},
{
glyphname = exclamdown;
layers = (
{
layerId = "F2D4BABB-D5EC-4775-ADE2-E484DFADF6C4";
paths = (
{
nodes = (
"126 10 LINE",
"13 10 LINE",
"96 532 LINE",
"209 532 LINE"
);
},
{
nodes = (
"233 686 LINE",
"216 575 LINE",
"103 575 LINE",
"120 686 LINE"
);
}
);
width = 137;
}
);
unicode = 00A1;
},
{
glyphname = cent;
layers = (
{
layerId = "F2D4BABB-D5EC-4775-ADE2-E484DFADF6C4";
paths = (
{
nodes = (
"536 569 LINE",
"518 452 LINE",
"210 452 LINE",
"185 287 LINE",
"493 287 LINE",
"473 164 LINE",
"52 164 LINE",
"115 569 LINE"
);
},
{
nodes = (
"343 793 LINE",
"425 793 LINE",
"285 -79 LINE",
"203 -79 LINE"
);
}
);
width = 492;
}
);
unicode = 00A2;
},
{
glyphname = sterling;
layers = (
{
layerId = "F2D4BABB-D5EC-4775-ADE2-E484DFADF6C4";
paths = (
{
nodes = (
"74 10 LINE",
"181 686 LINE",
"580 686 LINE",
"553 516 LINE",
"431 467 LINE",
"448 569 LINE",
"276 569 LINE",
"185 10 LINE"
);
},
{
nodes = (
"481 10 LINE",
"18 10 LINE",
"35 124 LINE",
"498 124 LINE"
);
},
{
nodes = (
"346 241 LINE",
"62 241 LINE",
"80 355 LINE",
"364 355 LINE"
);
}
);
width = 534;
}
);
unicode = 00A3;
},
{
glyphname = yen;
layers = (
{
layerId = "F2D4BABB-D5EC-4775-ADE2-E484DFADF6C4";
paths = (
{
nodes = (
"269 420 LINE",
"358 474 LINE",
"391 686 LINE",
"503 686 LINE",
"459 410 LINE",
"308 314 LINE",
"260 10 LINE",
"146 10 LINE",
"194 313 LINE",
"76 410 LINE",
"120 686 LINE",
"232 686 LINE",
"199 474 LINE"
);
},
{
nodes = (
"403 221 LINE",
"63 221 LINE",
"81 335 LINE",
"421 335 LINE"
);
},
{
nodes = (
"376 47 LINE",
"36 47 LINE",
"54 161 LINE",
"394 161 LINE"
);
}
);
width = 407;
}
);
unicode = 00A5;
},
{
glyphname = AE;
layers = (
{
layerId = "F2D4BABB-D5EC-4775-ADE2-E484DFADF6C4";
paths = (
{
nodes = (
"477 406 LINE",
"662 484 LINE",
"642 358 LINE",
"457 280 LINE",
"434 133 LINE",
"708 133 LINE",
"688 10 LINE",
"299 10 LINE",
"334 232 LINE",
"161 232 LINE",
"126 10 LINE",
"13 10 LINE",
"120 686 LINE",
"321 686 LINE",
"399 632 LINE",
"408 686 LINE",
"795 686 LINE",
"777 569 LINE",
"503 569 LINE"
);
},
{
nodes = (
"352 345 LINE",
"376 496 LINE",
"275 569 LINE",
"215 569 LINE",
"179 345 LINE"
);
}
);
width = 709;
}
);
unicode = 00C6;
},
{
glyphname = Eth;
layers = (
{
layerId = "F2D4BABB-D5EC-4775-ADE2-E484DFADF6C4";
paths = (
{
nodes = (
"384 686 LINE",
"562 563 LINE",
"474 10 LINE",
"76 10 LINE",
"183 686 LINE"
);
},
{
nodes = (
"278 569 LINE",
"209 133 LINE",
"382 133 LINE",
"439 495 LINE",
"338 569 LINE"
);
},
{
nodes = (
"349 310 LINE",
"69 310 LINE",
"87 424 LINE",
"367 424 LINE"
);
}
);
width = 493;
}
);
unicode = 00D0;
},
{
glyphname = multiply;
layers = (
{
layerId = "F2D4BABB-D5EC-4775-ADE2-E484DFADF6C4";
paths = (
{
nodes = (
"450 426 LINE",
"163 181 LINE",
"87 270 LINE",
"374 523 LINE"
);
},
{
nodes = (
"163 523 LINE",
"450 270 LINE",
"374 181 LINE",
"87 426 LINE"
);
}
);
width = 451;
}
);
unicode = 00D7;
},
{
glyphname = Oslash;
layers = (
{
layerId = "F2D4BABB-D5EC-4775-ADE2-E484DFADF6C4";
paths = (
{
nodes = (
"519 686 LINE",
"412 10 LINE",
"13 10 LINE",
"120 686 LINE"
);
},
{
nodes = (
"388 569 LINE",
"214 569 LINE",
"145 133 LINE",
"319 133 LINE"
);
},
{
nodes = (
"385 779 LINE",
"455 779 LINE",
"145 -81 LINE",
"75 -81 LINE"
);
}
);
width = 423;
}
);
unicode = 00D8;
},
{
glyphname = Thorn;
layers = (
{
layerId = "F2D4BABB-D5EC-4775-ADE2-E484DFADF6C4";
paths = (
{
nodes = (
"503 598 LINE",
"426 117 LINE",
"138 117 LINE",
"105 -79 LINE",
"-4 -79 LINE",
"136 793 LINE",
"245 793 LINE",
"213 598 LINE"
);
},
{
nodes = (
"372 481 LINE",
"198 481 LINE",
"159 240 LINE",
"333 240 LINE"
);
}
);
width = 431;
}
);
unicode = 00DE;
},
{
glyphname = germandbls;
layers = (
{
layerId = "F2D4BABB-D5EC-4775-ADE2-E484DFADF6C4";
paths = (
{
nodes = (
"97 563 LINE",
"313 685 LINE",
"569 685 LINE",
"537 481 LINE",
"458 425 LINE",
"528 425 LINE",
"478 113 LINE",
"307 10 LINE",
"178 10 LINE",
"197 133 LINE",
"283 133 LINE",
"379 192 LINE",
"400 328 LINE",
"321 328 LINE",
"207 255 LINE",
"229 396 LINE",
"431 523 LINE",
"439 569 LINE",
"323 569 LINE",
"198 495 LINE",
"126 10 LINE",
"14 10 LINE"
);
}
);
width = 486;
}
);
unicode = 00DF;
},
{
glyphname = ae;
layers = (
{
layerId = "F2D4BABB-D5EC-4775-ADE2-E484DFADF6C4";
paths = (
{
nodes = (
"477 406 LINE",
"662 484 LINE",
"642 358 LINE",
"457 280 LINE",
"434 133 LINE",
"708 133 LINE",
"688 10 LINE",
"299 10 LINE",
"334 232 LINE",
"161 232 LINE",
"126 10 LINE",
"13 10 LINE",
"120 686 LINE",
"321 686 LINE",
"399 632 LINE",
"408 686 LINE",
"795 686 LINE",
"777 569 LINE",
"503 569 LINE"
);
},
{
nodes = (
"352 345 LINE",
"376 496 LINE",
"275 569 LINE",
"215 569 LINE",
"179 345 LINE"
);
}
);
width = 709;
}
);
unicode = 00E6;
},
{
glyphname = eth;
layers = (
{
layerId = "F2D4BABB-D5EC-4775-ADE2-E484DFADF6C4";
paths = (
{
nodes = (
"384 686 LINE",
"562 563 LINE",
"474 10 LINE",
"76 10 LINE",
"183 686 LINE"
);
},
{
nodes = (
"278 569 LINE",
"209 133 LINE",
"382 133 LINE",
"439 495 LINE",
"338 569 LINE"
);
},
{
nodes = (
"349 310 LINE",
"69 310 LINE",
"87 424 LINE",
"367 424 LINE"
);
}
);
width = 493;
}
);
unicode = 00F0;
},
{
glyphname = divide;
layers = (
{
layerId = "F2D4BABB-D5EC-4775-ADE2-E484DFADF6C4";
paths = (
{
nodes = (
"479 313 LINE",
"86 313 LINE",
"104 427 LINE",
"497 427 LINE"
);
},
{
nodes = (
"263 652 LINE",
"376 652 LINE",
"358 538 LINE",
"245 538 LINE"
);
},
{
nodes = (
"188 177 LINE",
"301 177 LINE",
"284 69 LINE",
"171 69 LINE"
);
}
);
width = 478;
}
);
unicode = 00F7;
},
{
glyphname = oslash;
layers = (
{
layerId = "F2D4BABB-D5EC-4775-ADE2-E484DFADF6C4";
paths = (
{
nodes = (
"519 686 LINE",
"412 10 LINE",
"13 10 LINE",
"120 686 LINE"
);
},
{
nodes = (
"388 569 LINE",
"214 569 LINE",
"145 133 LINE",
"319 133 LINE"
);
},
{
nodes = (
"385 779 LINE",
"455 779 LINE",
"145 -81 LINE",
"75 -81 LINE"
);
}
);
width = 423;
}
);
unicode = 00F8;
},
{
glyphname = thorn;
layers = (
{
layerId = "F2D4BABB-D5EC-4775-ADE2-E484DFADF6C4";
paths = (
{
nodes = (
"503 598 LINE",
"426 117 LINE",
"138 117 LINE",
"105 -79 LINE",
"-4 -79 LINE",
"136 793 LINE",
"245 793 LINE",
"213 598 LINE"
);
},
{
nodes = (
"372 481 LINE",
"198 481 LINE",
"159 240 LINE",
"333 240 LINE"
);
}
);
width = 431;
}
);
unicode = 00FE;
},
{
glyphname = euro;
layers = (
{
layerId = "F2D4BABB-D5EC-4775-ADE2-E484DFADF6C4";
paths = (
{
nodes = (
"454 569 LINE",
"280 569 LINE",
"211 133 LINE",
"385 133 LINE",
"397 213 LINE",
"510 213 LINE",
"478 10 LINE",
"79 10 LINE",
"186 686 LINE",
"585 686 LINE",
"554 494 LINE",
"442 494 LINE"
);
},
{
nodes = (
"360 406 LINE",
"93 406 LINE",
"111 520 LINE",
"378 520 LINE"
);
},
{
nodes = (
"327 220 LINE",
"60 220 LINE",
"78 334 LINE",
"345 334 LINE"
);
}
);
width = 489;
}
);
unicode = 20AC;
},
{
glyphname = gravecomb;
layers = (
{
layerId = "F2D4BABB-D5EC-4775-ADE2-E484DFADF6C4";
paths = (
{
nodes = (
"247 833 LINE",
"362 833 LINE",
"435 726 LINE",
"320 726 LINE"
);
}
);
width = 343;
}
);
unicode = 0300;
},
{
glyphname = acutecomb;
layers = (
{
layerId = "F2D4BABB-D5EC-4775-ADE2-E484DFADF6C4";
paths = (
{
nodes = (
"362 726 LINE",
"247 726 LINE",
"320 833 LINE",
"435 833 LINE"
);
}
);
width = 343;
}
);
unicode = 0301;
},
{
glyphname = circumflexcomb;
layers = (
{
layerId = "F2D4BABB-D5EC-4775-ADE2-E484DFADF6C4";
paths = (
{
nodes = (
"435 726 LINE",
"320 726 LINE",
"279 788 LINE",
"237 728 LINE",
"127 728 LINE",
"202 833 LINE",
"362 833 LINE"
);
}
);
width = 833;
}
);
unicode = 0302;
},
{
glyphname = tildecomb;
layers = (
{
layerId = "F2D4BABB-D5EC-4775-ADE2-E484DFADF6C4";
paths = (
{
nodes = (
"489 810 LINE",
"466 775 OFFCURVE",
"399 730 OFFCURVE",
"361 730 QCURVE SMOOTH",
"336 730 OFFCURVE",
"302 745 OFFCURVE",
"275 762 OFFCURVE",
"251 777 OFFCURVE",
"235 777 QCURVE SMOOTH",
"214 777 OFFCURVE",
"178 751 OFFCURVE",
"165 733 QCURVE",
"106 798 LINE",
"130 833 OFFCURVE",
"199 877 OFFCURVE",
"237 877 QCURVE SMOOTH",
"261 877 OFFCURVE",
"294 863 OFFCURVE",
"320 845 OFFCURVE",
"344 831 OFFCURVE",
"359 831 QCURVE SMOOTH",
"381 831 OFFCURVE",
"416 856 OFFCURVE",
"429 876 QCURVE"
);
}
);
width = 543;
}
);
unicode = 0303;
},
{
glyphname = macroncomb;
layers = (
{
layerId = "F2D4BABB-D5EC-4775-ADE2-E484DFADF6C4";
paths = (
{
nodes = (
"466 727 LINE",
"186 727 LINE",
"204 841 LINE",
"484 841 LINE"
);
}
);
width = 412;
}
);
unicode = 0304;
},
{
glyphname = brevecomb;
layers = (
{
layerId = "F2D4BABB-D5EC-4775-ADE2-E484DFADF6C4";
paths = (
{
nodes = (
"278 802 OFFCURVE",
"304 823 OFFCURVE",
"306 840 QCURVE",
"401 840 LINE",
"399 813 OFFCURVE",
"376 765 OFFCURVE",
"339 731 OFFCURVE",
"289 711 OFFCURVE",
"261 711 QCURVE SMOOTH",
"232 711 OFFCURVE",
"183 731 OFFCURVE",
"146 765 OFFCURVE",
"124 813 OFFCURVE",
"123 840 QCURVE",
"216 840 LINE",
"218 823 OFFCURVE",
"244 802 OFFCURVE",
"261 802 QCURVE SMOOTH"
);
}
);
width = 424;
}
);
unicode = 0306;
},
{
glyphname = dotaccentcomb;
layers = (
{
layerId = "F2D4BABB-D5EC-4775-ADE2-E484DFADF6C4";
paths = (
{
nodes = (
"266 859 LINE",
"405 859 LINE",
"383 727 LINE",
"244 727 LINE"
);
}
);
width = 833;
}
);
unicode = 0307;
},
{
glyphname = dieresiscomb;
layers = (
{
layerId = "F2D4BABB-D5EC-4775-ADE2-E484DFADF6C4";
paths = (
{
nodes = (
"287 835 LINE",
"400 835 LINE",
"383 727 LINE",
"270 727 LINE"
);
},
{
nodes = (
"470 835 LINE",
"583 835 LINE",
"566 727 LINE",
"453 727 LINE"
);
}
);
width = 833;
}
);
unicode = 0308;
},
{
glyphname = ringcomb;
layers = (
{
layerId = "F2D4BABB-D5EC-4775-ADE2-E484DFADF6C4";
paths = (
{
nodes = (
"121 847 OFFCURVE",
"136 884 OFFCURVE",
"163 912 OFFCURVE",
"200 928 OFFCURVE",
"221 928 QCURVE SMOOTH",
"242 928 OFFCURVE",
"278 912 OFFCURVE",
"305 884 OFFCURVE",
"321 847 OFFCURVE",
"321 826 QCURVE SMOOTH",
"321 805 OFFCURVE",
"305 768 OFFCURVE",
"278 741 OFFCURVE",
"242 725 OFFCURVE",
"221 725 QCURVE SMOOTH",
"200 725 OFFCURVE",
"163 741 OFFCURVE",
"136 768 OFFCURVE",
"121 805 OFFCURVE",
"121 826 QCURVE SMOOTH"
);
},
{
nodes = (
"184 811 OFFCURVE",
"205 791 OFFCURVE",
"219 791 QCURVE SMOOTH",
"235 791 OFFCURVE",
"255 811 OFFCURVE",
"255 826 QCURVE SMOOTH",
"255 841 OFFCURVE",
"235 861 OFFCURVE",
"219 861 QCURVE SMOOTH",
"205 861 OFFCURVE",
"184 841 OFFCURVE",
"184 826 QCURVE SMOOTH"
);
}
);
width = 358;
}
);
},
{
glyphname = hungarumlautcomb;
layers = (
{
layerId = "F2D4BABB-D5EC-4775-ADE2-E484DFADF6C4";
paths = (
{
nodes = (
"362 726 LINE",
"247 726 LINE",
"320 833 LINE",
"435 833 LINE"
);
},
{
nodes = (
"531 726 LINE",
"416 726 LINE",
"489 833 LINE",
"604 833 LINE"
);
}
);
width = 686;
}
);
},
{
glyphname = caroncomb;
layers = (
{
layerId = "F2D4BABB-D5EC-4775-ADE2-E484DFADF6C4";
paths = (
{
nodes = (
"362 726 LINE",
"202 726 LINE",
"127 831 LINE",
"237 831 LINE",
"279 771 LINE",
"320 833 LINE",
"435 833 LINE"
);
}
);
width = 833;
}
);
},
{
glyphname = cedillacomb;
layers = (
{
layerId = "F2D4BABB-D5EC-4775-ADE2-E484DFADF6C4";
paths = (
{
nodes = (
"428 -140 LINE",
"401 -301 LINE",
"122 -301 LINE",
"140 -198 LINE",
"311 -198 LINE",
"154 -119 LINE",
"178 10 LINE",
"285 10 LINE",
"270 -63 LINE"
);
}
);
width = 481;
}
);
},
{
glyphname = ogonekcomb;
layers = (
{
layerId = "F2D4BABB-D5EC-4775-ADE2-E484DFADF6C4";
paths = (
{
nodes = (
"117 -169 LINE",
"114 -201 LINE",
"290 -201 LINE",
"273 -300 LINE",
"-2 -300 LINE",
"36 -80 LINE",
"174 -80 LINE",
"190 10 LINE",
"294 10 LINE",
"257 -169 LINE"
);
}
);
width = 396;
}
);
},
{
glyphname = caroncomb.alt;
layers = (
{
layerId = "F2D4BABB-D5EC-4775-ADE2-E484DFADF6C4";
paths = (
{
nodes = (
"362 726 LINE",
"202 726 LINE",
"127 831 LINE",
"237 831 LINE",
"279 771 LINE",
"320 833 LINE",
"435 833 LINE"
);
}
);
width = 833;
}
);
},
{
glyphname = Germandbls;
layers = (
{
layerId = "F2D4BABB-D5EC-4775-ADE2-E484DFADF6C4";
paths = (
{
nodes = (
"108 563 LINE",
"288 685 LINE",
"580 685 LINE",
"391 425 LINE",
"539 425 LINE",
"489 113 LINE",
"318 10 LINE",
"189 10 LINE",
"208 133 LINE",
"294 133 LINE",
"390 192 LINE",
"411 328 LINE",
"313 331 LINE",
"218 255 LINE",
"240 396 LINE",
"379 575 LINE",
"311 569 LINE",
"209 495 LINE",
"137 10 LINE",
"25 10 LINE"
);
}
);
width = 507;
}
);
},
{
glyphname = periodcentered.loclCAT;
layers = (
{
layerId = "F2D4BABB-D5EC-4775-ADE2-E484DFADF6C4";
paths = (
{
nodes = (
"97 444 LINE",
"236 444 LINE",
"214 312 LINE",
"75 312 LINE"
);
}
);
width = 184;
}
);
},
{
glyphname = periodcentered.loclCAT.case;
layers = (
{
layerId = "F2D4BABB-D5EC-4775-ADE2-E484DFADF6C4";
paths = (
{
nodes = (
"97 444 LINE",
"236 444 LINE",
"214 312 LINE",
"75 312 LINE"
);
}
);
width = 184;
}
);
},
{
glyphname = hbar;
layers = (
{
layerId = "F2D4BABB-D5EC-4775-ADE2-E484DFADF6C4";
paths = (
{
nodes = (
"607 500 LINE",
"84 500 LINE",
"102 614 LINE",
"625 614 LINE"
);
},
{
nodes = (
"471 10 LINE",
"357 10 LINE",
"408 330 LINE",
"233 330 LINE",
"182 10 LINE",
"69 10 LINE",
"176 686 LINE",
"289 686 LINE",
"251 444 LINE",
"426 444 LINE",
"464 686 LINE",
"578 686 LINE"
);
}
);
width = 537;
}
);
unicode = 0127;
},
{
glyphname = Kcommaaccent;
layers = (
{
layerId = "F2D4BABB-D5EC-4775-ADE2-E484DFADF6C4";
paths = (
{
nodes = (
"134 -210 LINE",
"160 -43 LINE",
"273 -43 LINE",
"247 -210 LINE"
);
},
{
nodes = (
"370 514 LINE",
"397 686 LINE",
"519 686 LINE",
"486 477 LINE",
"407 421 LINE",
"477 421 LINE",
"412 10 LINE",
"300 10 LINE",
"350 324 LINE",
"271 324 LINE",
"164 248 LINE",
"126 10 LINE",
"13 10 LINE",
"120 686 LINE",
"233 686 LINE",
"186 390 LINE"
);
}
);
width = 423;
}
);
unicode = 0136;
},
{
glyphname = kcommaaccent;
layers = (
{
layerId = "F2D4BABB-D5EC-4775-ADE2-E484DFADF6C4";
paths = (
{
nodes = (
"134 -210 LINE",
"160 -43 LINE",
"273 -43 LINE",
"247 -210 LINE"
);
},
{
nodes = (
"370 514 LINE",
"397 686 LINE",
"519 686 LINE",
"486 477 LINE",
"407 421 LINE",
"477 421 LINE",
"412 10 LINE",
"300 10 LINE",
"350 324 LINE",
"271 324 LINE",
"164 248 LINE",
"126 10 LINE",
"13 10 LINE",
"120 686 LINE",
"233 686 LINE",
"186 390 LINE"
);
}
);
width = 423;
}
);
unicode = 0137;
},
{
glyphname = Lcommaaccent;
layers = (
{
layerId = "F2D4BABB-D5EC-4775-ADE2-E484DFADF6C4";
paths = (
{
nodes = (
"96 -210 LINE",
"122 -43 LINE",
"235 -43 LINE",
"209 -210 LINE"
);
},
{
nodes = (
"146 133 LINE",
"403 133 LINE",
"383 10 LINE",
"13 10 LINE",
"120 686 LINE",
"233 686 LINE"
);
}
);
width = 394;
}
);
unicode = 013B;
},
{
glyphname = lcommaaccent;
layers = (
{
layerId = "F2D4BABB-D5EC-4775-ADE2-E484DFADF6C4";
paths = (
{
nodes = (
"96 -210 LINE",
"122 -43 LINE",
"235 -43 LINE",
"209 -210 LINE"
);
},
{
nodes = (
"146 133 LINE",
"403 133 LINE",
"383 10 LINE",
"13 10 LINE",
"120 686 LINE",
"233 686 LINE"
);
}
);
width = 394;
}
);
unicode = 013C;
},
{
glyphname = Ncommaaccent;
layers = (
{
layerId = "F2D4BABB-D5EC-4775-ADE2-E484DFADF6C4";
paths = (
{
nodes = (
"96 -210 LINE",
"122 -43 LINE",
"235 -43 LINE",
"209 -210 LINE"
);
},
{
nodes = (
"215 569 LINE",
"126 10 LINE",
"13 10 LINE",
"120 686 LINE",
"321 686 LINE",
"499 563 LINE",
"411 10 LINE",
"299 10 LINE",
"376 495 LINE",
"275 569 LINE"
);
}
);
width = 422;
}
);
unicode = 0145;
},
{
glyphname = ncommaaccent;
layers = (
{
layerId = "F2D4BABB-D5EC-4775-ADE2-E484DFADF6C4";
paths = (
{
nodes = (
"96 -210 LINE",
"122 -43 LINE",
"235 -43 LINE",
"209 -210 LINE"
);
},
{
nodes = (
"215 569 LINE",
"126 10 LINE",
"13 10 LINE",
"120 686 LINE",
"321 686 LINE",
"499 563 LINE",
"411 10 LINE",
"299 10 LINE",
"376 495 LINE",
"275 569 LINE"
);
}
);
width = 422;
}
);
unicode = 0146;
},
{
glyphname = Tcommaaccent;
layers = (
{
layerId = "F2D4BABB-D5EC-4775-ADE2-E484DFADF6C4";
paths = (
{
nodes = (
"96 -210 LINE",
"122 -43 LINE",
"235 -43 LINE",
"209 -210 LINE"
);
},
{
nodes = (
"120 686 LINE",
"473 686 LINE",
"455 569 LINE",
"337 569 LINE",
"248 10 LINE",
"135 10 LINE",
"224 569 LINE",
"102 569 LINE"
);
}
);
width = 377;
}
);
unicode = 0162;
},
{
glyphname = tcommaaccent;
layers = (
{
layerId = "F2D4BABB-D5EC-4775-ADE2-E484DFADF6C4";
paths = (
{
nodes = (
"96 -210 LINE",
"122 -43 LINE",
"235 -43 LINE",
"209 -210 LINE"
);
},
{
nodes = (
"120 686 LINE",
"473 686 LINE",
"455 569 LINE",
"337 569 LINE",
"248 10 LINE",
"135 10 LINE",
"224 569 LINE",
"102 569 LINE"
);
}
);
width = 377;
}
);
unicode = 0163;
},
{
glyphname = Hbar;
layers = (
{
layerId = "F2D4BABB-D5EC-4775-ADE2-E484DFADF6C4";
paths = (
{
nodes = (
"607 500 LINE",
"84 500 LINE",
"102 614 LINE",
"625 614 LINE"
);
},
{
nodes = (
"471 10 LINE",
"357 10 LINE",
"408 330 LINE",
"233 330 LINE",
"182 10 LINE",
"69 10 LINE",
"176 686 LINE",
"289 686 LINE",
"251 444 LINE",
"426 444 LINE",
"464 686 LINE",
"578 686 LINE"
);
}
);
width = 537;
}
);
unicode = 0126;
},
{
glyphname = dcroat;
layers = (
{
layerId = "F2D4BABB-D5EC-4775-ADE2-E484DFADF6C4";
paths = (
{
nodes = (
"384 686 LINE",
"562 563 LINE",
"474 10 LINE",
"76 10 LINE",
"183 686 LINE"
);
},
{
nodes = (
"278 569 LINE",
"209 133 LINE",
"382 133 LINE",
"439 495 LINE",
"338 569 LINE"
);
},
{
nodes = (
"349 310 LINE",
"69 310 LINE",
"87 424 LINE",
"367 424 LINE"
);
}
);
width = 493;
}
);
unicode = 0111;
},
{
glyphname = Dcroat;
layers = (
{
layerId = "F2D4BABB-D5EC-4775-ADE2-E484DFADF6C4";
paths = (
{
nodes = (
"384 686 LINE",
"562 563 LINE",
"474 10 LINE",
"76 10 LINE",
"183 686 LINE"
);
},
{
nodes = (
"278 569 LINE",
"209 133 LINE",
"382 133 LINE",
"439 495 LINE",
"338 569 LINE"
);
},
{
nodes = (
"349 310 LINE",
"69 310 LINE",
"87 424 LINE",
"367 424 LINE"
);
}
);
width = 493;
}
);
unicode = 0110;
},
{
glyphname = guillemetleft;
layers = (
{
layerId = "F2D4BABB-D5EC-4775-ADE2-E484DFADF6C4";
paths = (
{
nodes = (
"608 174 LINE",
"586 33 LINE",
"265 298 LINE",
"279 384 LINE",
"684 649 LINE",
"661 509 LINE",
"406 341 LINE"
);
},
{
nodes = (
"378 174 LINE",
"356 33 LINE",
"35 298 LINE",
"49 384 LINE",
"454 649 LINE",
"431 509 LINE",
"176 341 LINE"
);
}
);
width = 633;
}
);
},
{
glyphname = guillemetright;
layers = (
{
layerId = "F2D4BABB-D5EC-4775-ADE2-E484DFADF6C4";
paths = (
{
nodes = (
"111 508 LINE",
"133 649 LINE",
"454 384 LINE",
"440 298 LINE",
"35 33 LINE",
"58 173 LINE",
"313 341 LINE"
);
},
{
nodes = (
"341 508 LINE",
"363 649 LINE",
"684 384 LINE",
"670 298 LINE",
"265 33 LINE",
"288 173 LINE",
"543 341 LINE"
);
}
);
width = 633;
}
);
},
